<?xml version="1.0" encoding="UTF-8"?>
<svg id="Layer_1" data-name="Layer 1" xmlns="http://www.w3.org/2000/svg" version="1.1" viewBox="0 0 1080 1080">
  <defs>
    <style>
      .cls-1 {
        fill: #000;
      }

      .cls-1, .cls-2, .cls-3, .cls-4, .cls-5 {
        stroke-width: 0px;
      }

      .cls-2 {
        fill: #3b527f;
      }

      .cls-3 {
        fill: #f2f2f2;
      }

      .cls-4 {
        fill: #333133;
      }

      .cls-5 {
        fill: #fff;
      }
    </style>
  </defs>
  <g>
    <path class="cls-4" d="M-4694.89-1554.68v114.89c41.82,0,81.07,11.21,114.89,30.79,33.82-19.58,73.07-30.79,114.89-30.79v-114.89h-229.79ZM-4580-1011c-33.82,19.58-73.07,30.79-114.89,30.79v114.89h229.79v-114.89c-41.82,0-81.07-11.21-114.89-30.79ZM-4580-1409c-68.66,39.62-114.89,113.88-114.89,199s46.23,159.38,114.89,199c68.66-39.62,114.89-113.88,114.89-199s-46.23-159.38-114.89-199Z"/>
    <path class="cls-4" d="M-4729.36-1437.21v454.43c-110.57-16.59-195.32-112-195.32-227.21s84.75-210.62,195.32-227.21Z"/>
    <path class="cls-4" d="M-4465.11-1210c0,85.11-46.23,159.38-114.89,199-68.66-39.62-114.89-113.88-114.89-199s46.23-159.38,114.89-199c68.66,39.62,114.89,113.88,114.89,199Z"/>
    <path class="cls-4" d="M-4465.11-1210c0,85.11-46.23,159.38-114.89,199-68.66-39.62-114.89-113.88-114.89-199s46.23-159.38,114.89-199c68.66,39.62,114.89,113.88,114.89,199Z"/>
    <path class="cls-4" d="M-4235.32-1210c0,115.22-84.75,210.62-195.32,227.21v-454.43c110.57,16.59,195.32,112,195.32,227.21Z"/>
  </g>
  <g>
    <path class="cls-3" d="M-3414.89-1554.68v114.89c41.82,0,81.07,11.21,114.89,30.79,33.82-19.58,73.07-30.79,114.89-30.79v-114.89h-229.79ZM-3300-1011c-33.82,19.58-73.07,30.79-114.89,30.79v114.89h229.79v-114.89c-41.82,0-81.07-11.21-114.89-30.79ZM-3300-1409c-68.66,39.62-114.89,113.88-114.89,199s46.23,159.38,114.89,199c68.66-39.62,114.89-113.88,114.89-199s-46.23-159.38-114.89-199Z"/>
    <path class="cls-3" d="M-3449.36-1437.21v454.43c-110.57-16.59-195.32-112-195.32-227.21s84.75-210.62,195.32-227.21Z"/>
    <path class="cls-3" d="M-3185.11-1210c0,85.11-46.23,159.38-114.89,199-68.66-39.62-114.89-113.88-114.89-199s46.23-159.38,114.89-199c68.66,39.62,114.89,113.88,114.89,199Z"/>
    <path class="cls-3" d="M-3185.11-1210c0,85.11-46.23,159.38-114.89,199-68.66-39.62-114.89-113.88-114.89-199s46.23-159.38,114.89-199c68.66,39.62,114.89,113.88,114.89,199Z"/>
    <path class="cls-3" d="M-2955.32-1210c0,115.22-84.75,210.62-195.32,227.21v-454.43c110.57,16.59,195.32,112,195.32,227.21Z"/>
  </g>
  <g>
    <path class="cls-2" d="M-2134.89-1554.68v114.89c41.82,0,81.07,11.21,114.89,30.79,33.82-19.58,73.07-30.79,114.89-30.79v-114.89h-229.79ZM-2020-1011c-33.82,19.58-73.07,30.79-114.89,30.79v114.89h229.79v-114.89c-41.82,0-81.07-11.21-114.89-30.79ZM-2020-1409c-68.66,39.62-114.89,113.88-114.89,199s46.23,159.38,114.89,199c68.66-39.62,114.89-113.88,114.89-199s-46.23-159.38-114.89-199Z"/>
    <path class="cls-2" d="M-2169.36-1437.21v454.43c-110.57-16.59-195.32-112-195.32-227.21s84.75-210.62,195.32-227.21Z"/>
    <path class="cls-2" d="M-1905.11-1210c0,85.11-46.23,159.38-114.89,199-68.66-39.62-114.89-113.88-114.89-199s46.23-159.38,114.89-199c68.66,39.62,114.89,113.88,114.89,199Z"/>
    <path class="cls-2" d="M-1905.11-1210c0,85.11-46.23,159.38-114.89,199-68.66-39.62-114.89-113.88-114.89-199s46.23-159.38,114.89-199c68.66,39.62,114.89,113.88,114.89,199Z"/>
    <path class="cls-2" d="M-1675.32-1210c0,115.22-84.75,210.62-195.32,227.21v-454.43c110.57,16.59,195.32,112,195.32,227.21Z"/>
  </g>
  <g>
    <path class="cls-5" d="M-854.89-1554.68v114.89c41.82,0,81.07,11.21,114.89,30.79,33.82-19.58,73.07-30.79,114.89-30.79v-114.89h-229.79ZM-740-1011c-33.82,19.58-73.07,30.79-114.89,30.79v114.89h229.79v-114.89c-41.82,0-81.07-11.21-114.89-30.79ZM-740-1409c-68.66,39.62-114.89,113.88-114.89,199s46.23,159.38,114.89,199c68.66-39.62,114.89-113.88,114.89-199s-46.23-159.38-114.89-199Z"/>
    <path class="cls-5" d="M-889.36-1437.21v454.43c-110.57-16.59-195.32-112-195.32-227.21s84.75-210.62,195.32-227.21Z"/>
    <path class="cls-5" d="M-625.11-1210c0,85.11-46.23,159.38-114.89,199-68.66-39.62-114.89-113.88-114.89-199s46.23-159.38,114.89-199c68.66,39.62,114.89,113.88,114.89,199Z"/>
    <path class="cls-5" d="M-625.11-1210c0,85.11-46.23,159.38-114.89,199-68.66-39.62-114.89-113.88-114.89-199s46.23-159.38,114.89-199c68.66,39.62,114.89,113.88,114.89,199Z"/>
    <path class="cls-5" d="M-395.32-1210c0,115.22-84.75,210.62-195.32,227.21v-454.43c110.57,16.59,195.32,112,195.32,227.21Z"/>
  </g>
  <g>
    <path class="cls-4" d="M-4951.37-346.91h-20.9c-.28-2.15-.85-4.08-1.71-5.81-.86-1.73-2.01-3.2-3.43-4.43-1.42-1.23-3.1-2.17-5.04-2.82-1.94-.65-4.08-.98-6.42-.98-4.15,0-7.73,1.02-10.72,3.05-3,2.03-5.3,4.97-6.9,8.82-1.6,3.85-2.4,8.5-2.4,13.96s.81,10.44,2.44,14.27c1.63,3.83,3.93,6.72,6.9,8.65,2.97,1.94,6.49,2.9,10.55,2.9,2.28,0,4.37-.29,6.25-.88,1.88-.59,3.54-1.44,4.97-2.57,1.44-1.13,2.62-2.51,3.55-4.14.93-1.63,1.58-3.48,1.94-5.54l20.9.12c-.36,3.79-1.46,7.52-3.28,11.2-1.83,3.68-4.33,7.03-7.5,10.05-3.18,3.02-7.04,5.43-11.6,7.21-4.56,1.78-9.77,2.68-15.65,2.68-7.75,0-14.68-1.71-20.8-5.12-6.12-3.41-10.94-8.4-14.48-14.94-3.54-6.55-5.31-14.52-5.31-23.91s1.8-17.4,5.39-23.95c3.6-6.55,8.46-11.52,14.59-14.92,6.13-3.4,13-5.1,20.61-5.1,5.18,0,9.98.72,14.38,2.15,4.4,1.44,8.28,3.53,11.62,6.27,3.34,2.75,6.06,6.11,8.15,10.09,2.09,3.99,3.39,8.54,3.89,13.67Z"/>
    <path class="cls-4" d="M-4916.34-324.32c-3.01,0-5.58-1.06-7.71-3.18-2.13-2.12-3.18-4.68-3.16-7.69-.03-2.95,1.02-5.48,3.16-7.59,2.13-2.1,4.7-3.16,7.71-3.16,2.84,0,5.36,1.05,7.55,3.16,2.19,2.1,3.3,4.63,3.32,7.59-.03,2.01-.55,3.83-1.57,5.48-1.02,1.64-2.34,2.95-3.97,3.93-1.63.98-3.41,1.46-5.33,1.46Z"/>
    <path class="cls-4" d="M-4849.57-377.93v85.61h-20.69v-85.61h20.69Z"/>
    <path class="cls-4" d="M-4803.51-324.32c-3.01,0-5.58-1.06-7.71-3.18-2.13-2.12-3.18-4.68-3.16-7.69-.03-2.95,1.02-5.48,3.16-7.59,2.13-2.1,4.7-3.16,7.71-3.16,2.84,0,5.36,1.05,7.55,3.16,2.19,2.1,3.29,4.63,3.32,7.59-.03,2.01-.55,3.83-1.57,5.48-1.02,1.64-2.34,2.95-3.97,3.93-1.63.98-3.41,1.46-5.33,1.46Z"/>
    <path class="cls-4" d="M-4757.51-292.32v-85.61h20.69v68.8h35.61v16.8h-56.3Z"/>
    <path class="cls-4" d="M-4595.77-356.53c-.48-4.77-2.58-8.56-6.31-11.37-3.73-2.81-8.43-4.22-14.09-4.22-3.99,0-7.49.68-10.51,2.05-3.02,1.36-5.39,3.25-7.1,5.66-1.71,2.41-2.57,5.15-2.57,8.21,0,2.26.49,4.24,1.46,5.94.98,1.7,2.29,3.15,3.95,4.37,1.66,1.21,3.5,2.25,5.52,3.11,2.02.86,4.06,1.59,6.12,2.17l9.03,2.59c2.73.75,5.46,1.71,8.19,2.88s5.23,2.64,7.5,4.41c2.27,1.77,4.1,3.93,5.48,6.48,1.38,2.55,2.07,5.61,2.07,9.18,0,4.57-1.19,8.68-3.55,12.33-2.37,3.65-5.77,6.54-10.2,8.67-4.43,2.13-9.74,3.2-15.93,3.2-5.82,0-10.88-.97-15.17-2.91-4.29-1.94-7.66-4.62-10.12-8.05-2.45-3.43-3.83-7.4-4.14-11.91h8.03c.28,3.37,1.39,6.23,3.34,8.57,1.95,2.34,4.49,4.12,7.61,5.33,3.12,1.21,6.6,1.82,10.45,1.82,4.26,0,8.06-.72,11.39-2.15,3.33-1.44,5.95-3.44,7.86-6.02,1.91-2.58,2.86-5.58,2.86-9.01,0-2.9-.75-5.33-2.26-7.29-1.51-1.96-3.6-3.62-6.29-4.95-2.69-1.34-5.8-2.52-9.34-3.55l-10.24-3.01c-6.72-2.01-11.93-4.78-15.63-8.32-3.71-3.54-5.56-8.05-5.56-13.54,0-4.6,1.23-8.64,3.7-12.14,2.47-3.5,5.81-6.23,10.03-8.19,4.22-1.97,8.97-2.95,14.23-2.95s10.03.98,14.13,2.93c4.1,1.95,7.35,4.63,9.76,8.05,2.41,3.41,3.7,7.29,3.87,11.64h-7.57Z"/>
    <path class="cls-4" d="M-4527.45-292.32v-85.61h27.63c6.07,0,11.15,1.16,15.24,3.49,4.08,2.33,7.16,5.48,9.24,9.47,2.07,3.99,3.11,8.47,3.11,13.46s-1.03,9.48-3.09,13.48c-2.06,4-5.13,7.16-9.2,9.49-4.07,2.33-9.13,3.49-15.17,3.49h-21.74v-7.02h21.53c4.49,0,8.21-.84,11.16-2.53,2.95-1.69,5.16-3.99,6.63-6.92,1.46-2.93,2.19-6.26,2.19-9.99s-.73-7.06-2.19-9.99c-1.46-2.93-3.68-5.22-6.65-6.9-2.97-1.67-6.72-2.51-11.27-2.51h-19.6v78.58h-7.82Z"/>
    <path class="cls-4" d="M-4419.66-292.32h-8.19l31.14-85.61h8.36l31.14,85.61h-8.19l-26.84-75.45h-.59l-26.84,75.45ZM-4413.76-325.14h42.47v7.02h-42.47v-7.02Z"/>
    <path class="cls-4" d="M-4239.08-351.18h-7.86c-.59-2.93-1.64-5.64-3.16-8.13-1.52-2.49-3.42-4.67-5.71-6.54-2.28-1.87-4.88-3.32-7.77-4.35-2.9-1.03-6.03-1.55-9.41-1.55-5.41,0-10.33,1.41-14.78,4.22-4.44,2.81-8,6.95-10.66,12.39-2.66,5.45-3.99,12.12-3.99,20s1.33,14.63,3.99,20.06c2.66,5.43,6.21,9.55,10.66,12.35,4.44,2.8,9.37,4.2,14.78,4.2,3.37,0,6.51-.52,9.41-1.55,2.9-1.03,5.49-2.47,7.77-4.33,2.28-1.85,4.19-4.03,5.71-6.54,1.52-2.51,2.57-5.22,3.16-8.15h7.86c-.7,3.93-2,7.59-3.91,10.97-1.91,3.39-4.33,6.35-7.27,8.88-2.94,2.54-6.32,4.51-10.14,5.94-3.82,1.42-8.01,2.13-12.58,2.13-7.19,0-13.57-1.8-19.14-5.41-5.57-3.61-9.94-8.7-13.1-15.28-3.16-6.58-4.74-14.34-4.74-23.28s1.58-16.71,4.74-23.28c3.16-6.58,7.53-11.67,13.1-15.28,5.57-3.61,11.96-5.41,19.14-5.41,4.57,0,8.76.7,12.58,2.11,3.82,1.41,7.2,3.39,10.14,5.94,2.94,2.55,5.36,5.51,7.27,8.88,1.91,3.37,3.21,7.04,3.91,10.99Z"/>
    <path class="cls-4" d="M-4180.49-292.32v-85.61h49.66v7.02h-41.84v32.23h39.21v7.02h-39.21v32.31h42.68v7.02h-50.49Z"/>
  </g>
  <g>
    <path class="cls-3" d="M-3671.37-346.91h-20.9c-.28-2.15-.85-4.08-1.71-5.81-.86-1.73-2.01-3.2-3.43-4.43-1.42-1.23-3.1-2.17-5.04-2.82-1.94-.65-4.08-.98-6.42-.98-4.15,0-7.73,1.02-10.72,3.05-3,2.03-5.3,4.97-6.9,8.82-1.6,3.85-2.4,8.5-2.4,13.96s.81,10.44,2.44,14.27c1.63,3.83,3.93,6.72,6.9,8.65,2.97,1.94,6.49,2.9,10.55,2.9,2.28,0,4.37-.29,6.25-.88,1.88-.59,3.54-1.44,4.97-2.57,1.44-1.13,2.62-2.51,3.55-4.14.93-1.63,1.58-3.48,1.94-5.54l20.9.12c-.36,3.79-1.46,7.52-3.28,11.2-1.83,3.68-4.33,7.03-7.5,10.05-3.18,3.02-7.04,5.43-11.6,7.21-4.56,1.78-9.77,2.68-15.65,2.68-7.75,0-14.68-1.71-20.8-5.12-6.12-3.41-10.94-8.4-14.48-14.94-3.54-6.55-5.31-14.52-5.31-23.91s1.8-17.4,5.39-23.95c3.6-6.55,8.46-11.52,14.59-14.92,6.13-3.4,13-5.1,20.61-5.1,5.18,0,9.98.72,14.38,2.15,4.4,1.44,8.28,3.53,11.62,6.27,3.34,2.75,6.06,6.11,8.15,10.09,2.09,3.99,3.39,8.54,3.89,13.67Z"/>
    <path class="cls-3" d="M-3636.34-324.32c-3.01,0-5.58-1.06-7.71-3.18-2.13-2.12-3.18-4.68-3.16-7.69-.03-2.95,1.02-5.48,3.16-7.59,2.13-2.1,4.7-3.16,7.71-3.16,2.84,0,5.36,1.05,7.55,3.16,2.19,2.1,3.3,4.63,3.32,7.59-.03,2.01-.55,3.83-1.57,5.48-1.02,1.64-2.34,2.95-3.97,3.93-1.63.98-3.41,1.46-5.33,1.46Z"/>
    <path class="cls-3" d="M-3569.57-377.93v85.61h-20.69v-85.61h20.69Z"/>
    <path class="cls-3" d="M-3523.51-324.32c-3.01,0-5.58-1.06-7.71-3.18-2.13-2.12-3.18-4.68-3.16-7.69-.03-2.95,1.02-5.48,3.16-7.59,2.13-2.1,4.7-3.16,7.71-3.16,2.84,0,5.36,1.05,7.55,3.16,2.19,2.1,3.29,4.63,3.32,7.59-.03,2.01-.55,3.83-1.57,5.48-1.02,1.64-2.34,2.95-3.97,3.93-1.63.98-3.41,1.46-5.33,1.46Z"/>
    <path class="cls-3" d="M-3477.51-292.32v-85.61h20.69v68.8h35.61v16.8h-56.3Z"/>
    <path class="cls-3" d="M-3315.77-356.53c-.48-4.77-2.58-8.56-6.31-11.37-3.73-2.81-8.43-4.22-14.09-4.22-3.99,0-7.49.68-10.51,2.05-3.02,1.36-5.39,3.25-7.1,5.66-1.71,2.41-2.57,5.15-2.57,8.21,0,2.26.49,4.24,1.46,5.94.98,1.7,2.29,3.15,3.95,4.37,1.66,1.21,3.5,2.25,5.52,3.11,2.02.86,4.06,1.59,6.12,2.17l9.03,2.59c2.73.75,5.46,1.71,8.19,2.88s5.23,2.64,7.5,4.41c2.27,1.77,4.1,3.93,5.48,6.48,1.38,2.55,2.07,5.61,2.07,9.18,0,4.57-1.19,8.68-3.55,12.33-2.37,3.65-5.77,6.54-10.2,8.67-4.43,2.13-9.74,3.2-15.93,3.2-5.82,0-10.88-.97-15.17-2.91-4.29-1.94-7.66-4.62-10.12-8.05-2.45-3.43-3.83-7.4-4.14-11.91h8.03c.28,3.37,1.39,6.23,3.34,8.57,1.95,2.34,4.49,4.12,7.61,5.33,3.12,1.21,6.6,1.82,10.45,1.82,4.26,0,8.06-.72,11.39-2.15,3.33-1.44,5.95-3.44,7.86-6.02,1.91-2.58,2.86-5.58,2.86-9.01,0-2.9-.75-5.33-2.26-7.29-1.51-1.96-3.6-3.62-6.29-4.95-2.69-1.34-5.8-2.52-9.34-3.55l-10.24-3.01c-6.72-2.01-11.93-4.78-15.63-8.32-3.71-3.54-5.56-8.05-5.56-13.54,0-4.6,1.23-8.64,3.7-12.14,2.47-3.5,5.81-6.23,10.03-8.19,4.22-1.97,8.97-2.95,14.23-2.95s10.03.98,14.13,2.93c4.1,1.95,7.35,4.63,9.76,8.05,2.41,3.41,3.7,7.29,3.87,11.64h-7.57Z"/>
    <path class="cls-3" d="M-3247.45-292.32v-85.61h27.63c6.07,0,11.15,1.16,15.24,3.49,4.08,2.33,7.16,5.48,9.24,9.47,2.07,3.99,3.11,8.47,3.11,13.46s-1.03,9.48-3.09,13.48c-2.06,4-5.13,7.16-9.2,9.49-4.07,2.33-9.13,3.49-15.17,3.49h-21.74v-7.02h21.53c4.49,0,8.21-.84,11.16-2.53,2.95-1.69,5.16-3.99,6.63-6.92,1.46-2.93,2.19-6.26,2.19-9.99s-.73-7.06-2.19-9.99c-1.46-2.93-3.68-5.22-6.65-6.9-2.97-1.67-6.72-2.51-11.27-2.51h-19.6v78.58h-7.82Z"/>
    <path class="cls-3" d="M-3139.66-292.32h-8.19l31.14-85.61h8.36l31.14,85.61h-8.19l-26.84-75.45h-.59l-26.84,75.45ZM-3133.76-325.14h42.47v7.02h-42.47v-7.02Z"/>
    <path class="cls-3" d="M-2959.08-351.18h-7.86c-.59-2.93-1.64-5.64-3.16-8.13-1.52-2.49-3.42-4.67-5.71-6.54-2.28-1.87-4.88-3.32-7.77-4.35-2.9-1.03-6.03-1.55-9.41-1.55-5.41,0-10.33,1.41-14.78,4.22-4.44,2.81-8,6.95-10.66,12.39-2.66,5.45-3.99,12.12-3.99,20s1.33,14.63,3.99,20.06c2.66,5.43,6.21,9.55,10.66,12.35,4.44,2.8,9.37,4.2,14.78,4.2,3.37,0,6.51-.52,9.41-1.55,2.9-1.03,5.49-2.47,7.77-4.33,2.28-1.85,4.19-4.03,5.71-6.54,1.52-2.51,2.57-5.22,3.16-8.15h7.86c-.7,3.93-2,7.59-3.91,10.97-1.91,3.39-4.33,6.35-7.27,8.88-2.94,2.54-6.32,4.51-10.14,5.94-3.82,1.42-8.01,2.13-12.58,2.13-7.19,0-13.57-1.8-19.14-5.41-5.57-3.61-9.94-8.7-13.1-15.28-3.16-6.58-4.74-14.34-4.74-23.28s1.58-16.71,4.74-23.28c3.16-6.58,7.53-11.67,13.1-15.28,5.57-3.61,11.96-5.41,19.14-5.41,4.57,0,8.76.7,12.58,2.11,3.82,1.41,7.2,3.39,10.14,5.94,2.94,2.55,5.36,5.51,7.27,8.88,1.91,3.37,3.21,7.04,3.91,10.99Z"/>
    <path class="cls-3" d="M-2900.49-292.32v-85.61h49.66v7.02h-41.84v32.23h39.21v7.02h-39.21v32.31h42.68v7.02h-50.49Z"/>
  </g>
  <g>
    <path class="cls-2" d="M-2391.37-346.91h-20.9c-.28-2.15-.85-4.08-1.71-5.81-.86-1.73-2.01-3.2-3.43-4.43-1.42-1.23-3.1-2.17-5.04-2.82-1.94-.65-4.08-.98-6.42-.98-4.15,0-7.73,1.02-10.72,3.05-3,2.03-5.3,4.97-6.9,8.82-1.6,3.85-2.4,8.5-2.4,13.96s.81,10.44,2.44,14.27c1.63,3.83,3.93,6.72,6.9,8.65,2.97,1.94,6.49,2.9,10.55,2.9,2.28,0,4.37-.29,6.25-.88,1.88-.59,3.54-1.44,4.97-2.57,1.44-1.13,2.62-2.51,3.55-4.14.93-1.63,1.58-3.48,1.94-5.54l20.9.12c-.36,3.79-1.46,7.52-3.28,11.2-1.83,3.68-4.33,7.03-7.5,10.05-3.18,3.02-7.04,5.43-11.6,7.21-4.56,1.78-9.77,2.68-15.65,2.68-7.75,0-14.68-1.71-20.8-5.12-6.12-3.41-10.94-8.4-14.48-14.94-3.54-6.55-5.31-14.52-5.31-23.91s1.8-17.4,5.39-23.95c3.6-6.55,8.46-11.52,14.59-14.92,6.13-3.4,13-5.1,20.61-5.1,5.18,0,9.98.72,14.38,2.15,4.4,1.44,8.28,3.53,11.62,6.27,3.34,2.75,6.06,6.11,8.15,10.09,2.09,3.99,3.39,8.54,3.89,13.67Z"/>
    <path class="cls-2" d="M-2356.34-324.32c-3.01,0-5.58-1.06-7.71-3.18-2.13-2.12-3.18-4.68-3.16-7.69-.03-2.95,1.02-5.48,3.16-7.59,2.13-2.1,4.7-3.16,7.71-3.16,2.84,0,5.36,1.05,7.55,3.16,2.19,2.1,3.3,4.63,3.32,7.59-.03,2.01-.55,3.83-1.57,5.48-1.02,1.64-2.34,2.95-3.97,3.93-1.63.98-3.41,1.46-5.33,1.46Z"/>
    <path class="cls-2" d="M-2289.57-377.93v85.61h-20.69v-85.61h20.69Z"/>
    <path class="cls-2" d="M-2243.51-324.32c-3.01,0-5.58-1.06-7.71-3.18-2.13-2.12-3.18-4.68-3.16-7.69-.03-2.95,1.02-5.48,3.16-7.59,2.13-2.1,4.7-3.16,7.71-3.16,2.84,0,5.36,1.05,7.55,3.16,2.19,2.1,3.29,4.63,3.32,7.59-.03,2.01-.55,3.83-1.57,5.48-1.02,1.64-2.34,2.95-3.97,3.93-1.63.98-3.41,1.46-5.33,1.46Z"/>
    <path class="cls-2" d="M-2197.51-292.32v-85.61h20.69v68.8h35.61v16.8h-56.3Z"/>
    <path class="cls-2" d="M-2035.77-356.53c-.48-4.77-2.58-8.56-6.31-11.37-3.73-2.81-8.43-4.22-14.09-4.22-3.99,0-7.49.68-10.51,2.05-3.02,1.36-5.39,3.25-7.1,5.66-1.71,2.41-2.57,5.15-2.57,8.21,0,2.26.49,4.24,1.46,5.94.98,1.7,2.29,3.15,3.95,4.37,1.66,1.21,3.5,2.25,5.52,3.11,2.02.86,4.06,1.59,6.12,2.17l9.03,2.59c2.73.75,5.46,1.71,8.19,2.88s5.23,2.64,7.5,4.41c2.27,1.77,4.1,3.93,5.48,6.48,1.38,2.55,2.07,5.61,2.07,9.18,0,4.57-1.19,8.68-3.55,12.33-2.37,3.65-5.77,6.54-10.2,8.67-4.43,2.13-9.74,3.2-15.93,3.2-5.82,0-10.88-.97-15.17-2.91-4.29-1.94-7.66-4.62-10.12-8.05-2.45-3.43-3.83-7.4-4.14-11.91h8.03c.28,3.37,1.39,6.23,3.34,8.57,1.95,2.34,4.49,4.12,7.61,5.33,3.12,1.21,6.6,1.82,10.45,1.82,4.26,0,8.06-.72,11.39-2.15,3.33-1.44,5.95-3.44,7.86-6.02,1.91-2.58,2.86-5.58,2.86-9.01,0-2.9-.75-5.33-2.26-7.29-1.51-1.96-3.6-3.62-6.29-4.95-2.69-1.34-5.8-2.52-9.34-3.55l-10.24-3.01c-6.72-2.01-11.93-4.78-15.63-8.32-3.71-3.54-5.56-8.05-5.56-13.54,0-4.6,1.23-8.64,3.7-12.14,2.47-3.5,5.81-6.23,10.03-8.19,4.22-1.97,8.97-2.95,14.23-2.95s10.03.98,14.13,2.93c4.1,1.95,7.35,4.63,9.76,8.05,2.41,3.41,3.7,7.29,3.87,11.64h-7.57Z"/>
    <path class="cls-2" d="M-1967.45-292.32v-85.61h27.63c6.07,0,11.15,1.16,15.24,3.49,4.08,2.33,7.16,5.48,9.24,9.47,2.07,3.99,3.11,8.47,3.11,13.46s-1.03,9.48-3.09,13.48c-2.06,4-5.13,7.16-9.2,9.49-4.07,2.33-9.13,3.49-15.17,3.49h-21.74v-7.02h21.53c4.49,0,8.21-.84,11.16-2.53,2.95-1.69,5.16-3.99,6.63-6.92,1.46-2.93,2.19-6.26,2.19-9.99s-.73-7.06-2.19-9.99c-1.46-2.93-3.68-5.22-6.65-6.9-2.97-1.67-6.72-2.51-11.27-2.51h-19.6v78.58h-7.82Z"/>
    <path class="cls-2" d="M-1859.66-292.32h-8.19l31.14-85.61h8.36l31.14,85.61h-8.19l-26.84-75.45h-.59l-26.84,75.45ZM-1853.76-325.14h42.47v7.02h-42.47v-7.02Z"/>
    <path class="cls-2" d="M-1679.08-351.18h-7.86c-.59-2.93-1.64-5.64-3.16-8.13-1.52-2.49-3.42-4.67-5.71-6.54-2.28-1.87-4.88-3.32-7.77-4.35-2.9-1.03-6.03-1.55-9.41-1.55-5.41,0-10.33,1.41-14.78,4.22-4.44,2.81-8,6.95-10.66,12.39-2.66,5.45-3.99,12.12-3.99,20s1.33,14.63,3.99,20.06c2.66,5.43,6.21,9.55,10.66,12.35,4.44,2.8,9.37,4.2,14.78,4.2,3.37,0,6.51-.52,9.41-1.55,2.9-1.03,5.49-2.47,7.77-4.33,2.28-1.85,4.19-4.03,5.71-6.54,1.52-2.51,2.57-5.22,3.16-8.15h7.86c-.7,3.93-2,7.59-3.91,10.97-1.91,3.39-4.33,6.35-7.27,8.88-2.94,2.54-6.32,4.51-10.14,5.94-3.82,1.42-8.01,2.13-12.58,2.13-7.19,0-13.57-1.8-19.14-5.41-5.57-3.61-9.94-8.7-13.1-15.28-3.16-6.58-4.74-14.34-4.74-23.28s1.58-16.71,4.74-23.28c3.16-6.58,7.53-11.67,13.1-15.28,5.57-3.61,11.96-5.41,19.14-5.41,4.57,0,8.76.7,12.58,2.11,3.82,1.41,7.2,3.39,10.14,5.94,2.94,2.55,5.36,5.51,7.27,8.88,1.91,3.37,3.21,7.04,3.91,10.99Z"/>
    <path class="cls-2" d="M-1620.49-292.32v-85.61h49.66v7.02h-41.84v32.23h39.21v7.02h-39.21v32.31h42.68v7.02h-50.49Z"/>
  </g>
  <g>
    <path class="cls-5" d="M-1111.37-346.91h-20.9c-.28-2.15-.85-4.08-1.71-5.81-.86-1.73-2.01-3.2-3.43-4.43-1.42-1.23-3.1-2.17-5.04-2.82-1.94-.65-4.08-.98-6.42-.98-4.15,0-7.73,1.02-10.72,3.05-3,2.03-5.3,4.97-6.9,8.82-1.6,3.85-2.4,8.5-2.4,13.96s.81,10.44,2.44,14.27c1.63,3.83,3.93,6.72,6.9,8.65,2.97,1.94,6.49,2.9,10.55,2.9,2.28,0,4.37-.29,6.25-.88,1.88-.59,3.54-1.44,4.97-2.57,1.44-1.13,2.62-2.51,3.55-4.14.93-1.63,1.58-3.48,1.94-5.54l20.9.12c-.36,3.79-1.46,7.52-3.28,11.2-1.83,3.68-4.33,7.03-7.5,10.05-3.18,3.02-7.04,5.43-11.6,7.21-4.56,1.78-9.77,2.68-15.65,2.68-7.75,0-14.68-1.71-20.8-5.12-6.12-3.41-10.94-8.4-14.48-14.94-3.54-6.55-5.31-14.52-5.31-23.91s1.8-17.4,5.39-23.95c3.6-6.55,8.46-11.52,14.59-14.92,6.13-3.4,13-5.1,20.61-5.1,5.18,0,9.98.72,14.38,2.15,4.4,1.44,8.28,3.53,11.62,6.27,3.34,2.75,6.06,6.11,8.15,10.09,2.09,3.99,3.39,8.54,3.89,13.67Z"/>
    <path class="cls-5" d="M-1076.34-324.32c-3.01,0-5.58-1.06-7.71-3.18-2.13-2.12-3.18-4.68-3.16-7.69-.03-2.95,1.02-5.48,3.16-7.59,2.13-2.1,4.7-3.16,7.71-3.16,2.84,0,5.36,1.05,7.55,3.16,2.19,2.1,3.3,4.63,3.32,7.59-.03,2.01-.55,3.83-1.57,5.48-1.02,1.64-2.34,2.95-3.97,3.93-1.63.98-3.41,1.46-5.33,1.46Z"/>
    <path class="cls-5" d="M-1009.57-377.93v85.61h-20.69v-85.61h20.69Z"/>
    <path class="cls-5" d="M-963.51-324.32c-3.01,0-5.58-1.06-7.71-3.18-2.13-2.12-3.18-4.68-3.16-7.69-.03-2.95,1.02-5.48,3.16-7.59,2.13-2.1,4.7-3.16,7.71-3.16,2.84,0,5.36,1.05,7.55,3.16,2.19,2.1,3.29,4.63,3.32,7.59-.03,2.01-.55,3.83-1.57,5.48-1.02,1.64-2.34,2.95-3.97,3.93-1.63.98-3.41,1.46-5.33,1.46Z"/>
    <path class="cls-5" d="M-917.51-292.32v-85.61h20.69v68.8h35.61v16.8h-56.3Z"/>
    <path class="cls-5" d="M-755.77-356.53c-.48-4.77-2.58-8.56-6.31-11.37-3.73-2.81-8.43-4.22-14.09-4.22-3.99,0-7.49.68-10.51,2.05-3.02,1.36-5.39,3.25-7.1,5.66-1.71,2.41-2.57,5.15-2.57,8.21,0,2.26.49,4.24,1.46,5.94.98,1.7,2.29,3.15,3.95,4.37,1.66,1.21,3.5,2.25,5.52,3.11,2.02.86,4.06,1.59,6.12,2.17l9.03,2.59c2.73.75,5.46,1.71,8.19,2.88s5.23,2.64,7.5,4.41c2.27,1.77,4.1,3.93,5.48,6.48,1.38,2.55,2.07,5.61,2.07,9.18,0,4.57-1.19,8.68-3.55,12.33-2.37,3.65-5.77,6.54-10.2,8.67-4.43,2.13-9.74,3.2-15.93,3.2-5.82,0-10.88-.97-15.17-2.91-4.29-1.94-7.66-4.62-10.12-8.05-2.45-3.43-3.83-7.4-4.14-11.91h8.03c.28,3.37,1.39,6.23,3.34,8.57,1.95,2.34,4.49,4.12,7.61,5.33,3.12,1.21,6.6,1.82,10.45,1.82,4.26,0,8.06-.72,11.39-2.15,3.33-1.44,5.95-3.44,7.86-6.02,1.91-2.58,2.86-5.58,2.86-9.01,0-2.9-.75-5.33-2.26-7.29-1.51-1.96-3.6-3.62-6.29-4.95-2.69-1.34-5.8-2.52-9.34-3.55l-10.24-3.01c-6.72-2.01-11.93-4.78-15.63-8.32-3.71-3.54-5.56-8.05-5.56-13.54,0-4.6,1.23-8.64,3.7-12.14,2.47-3.5,5.81-6.23,10.03-8.19,4.22-1.97,8.97-2.95,14.23-2.95s10.03.98,14.13,2.93c4.1,1.95,7.35,4.63,9.76,8.05,2.41,3.41,3.7,7.29,3.87,11.64h-7.57Z"/>
    <path class="cls-5" d="M-687.45-292.32v-85.61h27.63c6.07,0,11.15,1.16,15.24,3.49,4.08,2.33,7.16,5.48,9.24,9.47,2.07,3.99,3.11,8.47,3.11,13.46s-1.03,9.48-3.09,13.48c-2.06,4-5.13,7.16-9.2,9.49-4.07,2.33-9.13,3.49-15.17,3.49h-21.74v-7.02h21.53c4.49,0,8.21-.84,11.16-2.53,2.95-1.69,5.16-3.99,6.63-6.92,1.46-2.93,2.19-6.26,2.19-9.99s-.73-7.06-2.19-9.99c-1.46-2.93-3.68-5.22-6.65-6.9-2.97-1.67-6.72-2.51-11.27-2.51h-19.6v78.58h-7.82Z"/>
    <path class="cls-5" d="M-579.66-292.32h-8.19l31.14-85.61h8.36l31.14,85.61h-8.19l-26.84-75.45h-.59l-26.84,75.45ZM-573.76-325.14h42.47v7.02h-42.47v-7.02Z"/>
    <path class="cls-5" d="M-399.08-351.18h-7.86c-.59-2.93-1.64-5.64-3.16-8.13-1.52-2.49-3.42-4.67-5.71-6.54-2.28-1.87-4.88-3.32-7.77-4.35-2.9-1.03-6.03-1.55-9.41-1.55-5.41,0-10.33,1.41-14.78,4.22-4.44,2.81-8,6.95-10.66,12.39-2.66,5.45-3.99,12.12-3.99,20s1.33,14.63,3.99,20.06c2.66,5.43,6.21,9.55,10.66,12.35,4.44,2.8,9.37,4.2,14.78,4.2,3.37,0,6.51-.52,9.41-1.55,2.9-1.03,5.49-2.47,7.77-4.33,2.28-1.85,4.19-4.03,5.71-6.54,1.52-2.51,2.57-5.22,3.16-8.15h7.86c-.7,3.93-2,7.59-3.91,10.97-1.91,3.39-4.33,6.35-7.27,8.88-2.94,2.54-6.32,4.51-10.14,5.94-3.82,1.42-8.01,2.13-12.58,2.13-7.19,0-13.57-1.8-19.14-5.41-5.57-3.61-9.94-8.7-13.1-15.28-3.16-6.58-4.74-14.34-4.74-23.28s1.58-16.71,4.74-23.28c3.16-6.58,7.53-11.67,13.1-15.28,5.57-3.61,11.96-5.41,19.14-5.41,4.57,0,8.76.7,12.58,2.11,3.82,1.41,7.2,3.39,10.14,5.94,2.94,2.55,5.36,5.51,7.27,8.88,1.91,3.37,3.21,7.04,3.91,10.99Z"/>
    <path class="cls-5" d="M-340.49-292.32v-85.61h49.66v7.02h-41.84v32.23h39.21v7.02h-39.21v32.31h42.68v7.02h-50.49Z"/>
  </g>
  <g>
    <path class="cls-4" d="M-4753.63,306.65l-23.07,23.07c-2.68-2.06-5.44-3.57-8.31-4.52-2.86-.95-5.75-1.32-8.67-1.11-2.92.22-5.81,1.03-8.67,2.45-2.86,1.42-5.58,3.41-8.17,6-4.58,4.58-7.4,9.65-8.47,15.2-1.06,5.55-.35,11.33,2.12,17.35,2.48,6.01,6.73,12.03,12.76,18.06,6.27,6.27,12.43,10.63,18.45,13.06,6.03,2.43,11.75,3.08,17.16,1.94,5.41-1.14,10.36-3.95,14.86-8.44,2.52-2.52,4.5-5.14,5.93-7.87,1.43-2.72,2.31-5.5,2.65-8.33.34-2.83.12-5.66-.65-8.49-.77-2.83-2.09-5.58-3.97-8.26l23.21-22.93c3.78,4.58,6.7,9.91,8.74,15.99,2.05,6.08,2.98,12.53,2.81,19.38-.17,6.84-1.78,13.77-4.84,20.76-3.06,7-7.84,13.74-14.33,20.23-8.55,8.55-18.09,14.32-28.61,17.3-10.52,2.98-21.35,2.81-32.48-.51-11.13-3.32-21.88-10.17-32.25-20.53-10.4-10.4-17.22-21.19-20.49-32.39-3.26-11.2-3.38-22.05-.37-32.57,3.01-10.52,8.72-19.98,17.12-28.37,5.72-5.72,11.8-10.22,18.25-13.5,6.44-3.27,13.03-5.24,19.75-5.9,6.72-.66,13.43.05,20.14,2.15,6.71,2.09,13.17,5.69,19.38,10.8Z"/>
    <path class="cls-4" d="M-4561.16,200.14v125.85h-30.42v-125.85h30.42Z"/>
    <path class="cls-4" d="M-4681.28,295.51c-2.4-1.43-4.34-3.36-5.84-5.78-1.49-2.42-2.26-5.1-2.3-8.05.04-4.34,1.67-8.06,4.89-11.15,3.22-3.09,6.91-4.64,11.09-4.64,4.42,0,8.2,1.55,11.34,4.64,3.13,3.09,4.68,6.81,4.64,11.15.04,4.43-1.5,8.19-4.64,11.31-3.13,3.11-6.91,4.67-11.34,4.67-2.83,0-5.44-.72-7.84-2.15Z"/>
    <path class="cls-4" d="M-4479.31,297.66c-4.42,0-8.2-1.56-11.34-4.67-3.13-3.11-4.68-6.88-4.64-11.31-.04-4.34,1.5-8.06,4.64-11.15,3.13-3.09,6.91-4.64,11.34-4.64,4.18,0,7.88,1.55,11.09,4.64,3.21,3.09,4.84,6.81,4.89,11.15-.04,2.95-.81,5.63-2.3,8.05-1.5,2.42-3.44,4.34-5.84,5.78-2.4,1.43-5.01,2.15-7.84,2.15Z"/>
    <path class="cls-4" d="M-4444.51,374.26l88.99-88.99,21.51,21.51-71.52,71.52,37.02,37.02-17.47,17.47-58.53-58.53Z"/>
    <path class="cls-4" d="M-4824.38,620.26c7.01-.7,12.58-3.79,16.72-9.28,4.14-5.49,6.21-12.39,6.21-20.71,0-5.86-1.01-11.01-3.01-15.46-2.01-4.45-4.78-7.93-8.33-10.45-3.54-2.52-7.57-3.78-12.08-3.78-3.32,0-6.23.72-8.73,2.15-2.5,1.43-4.64,3.37-6.42,5.81-1.78,2.44-3.31,5.14-4.58,8.11-1.27,2.97-2.33,5.97-3.19,9l-3.81,13.27c-1.11,4.01-2.52,8.03-4.24,12.04-1.72,4.01-3.88,7.69-6.48,11.03-2.6,3.34-5.78,6.02-9.52,8.05-3.75,2.03-8.25,3.04-13.49,3.04-6.72,0-12.76-1.74-18.13-5.22-5.37-3.48-9.62-8.48-12.75-14.99-3.14-6.52-4.7-14.32-4.7-23.41,0-8.56,1.42-16,4.27-22.31,2.85-6.31,6.79-11.27,11.83-14.87,5.04-3.61,10.88-5.63,17.51-6.09v11.8c-4.96.41-9.16,2.05-12.6,4.92-3.44,2.87-6.05,6.6-7.83,11.18-1.78,4.59-2.67,9.71-2.67,15.36,0,6.27,1.05,11.85,3.16,16.75,2.11,4.89,5.06,8.75,8.85,11.55,3.79,2.81,8.2,4.21,13.24,4.21,4.26,0,7.83-1.11,10.72-3.32,2.89-2.21,5.32-5.3,7.28-9.25,1.97-3.96,3.71-8.53,5.22-13.73l4.42-15.06c2.95-9.87,7.03-17.53,12.23-22.98,5.2-5.45,11.84-8.17,19.91-8.17,6.76,0,12.71,1.81,17.85,5.44,5.14,3.63,9.15,8.54,12.04,14.75,2.89,6.21,4.33,13.18,4.33,20.92s-1.44,14.75-4.3,20.77c-2.87,6.02-6.81,10.81-11.83,14.35-5.02,3.54-10.72,5.44-17.11,5.68v-11.12Z"/>
    <path class="cls-4" d="M-4819.95,780.3l88.99-88.99,28.72,28.72c6.31,6.31,10.38,12.8,12.21,19.47,1.82,6.66,1.74,13.14-.24,19.45-1.99,6.3-5.57,12.04-10.75,17.23-5.19,5.19-10.93,8.78-17.23,10.8-6.3,2.01-12.78,2.11-19.42.3-6.65-1.81-13.12-5.86-19.4-12.14l-22.6-22.6,7.3-7.3,22.38,22.38c4.66,4.66,9.41,7.65,14.23,8.97,4.82,1.32,9.52,1.22,14.08-.3,4.56-1.52,8.78-4.22,12.67-8.1,3.88-3.88,6.58-8.1,8.1-12.67,1.52-4.56,1.61-9.25.26-14.08-1.35-4.82-4.38-9.6-9.1-14.32l-20.38-20.38-81.69,81.69-8.13-8.13Z"/>
    <path class="cls-4" d="M-4616.24,879.86h-12.04l45.78-125.85h12.29l45.78,125.85h-12.04l-39.45-110.92h-.86l-39.45,110.92ZM-4607.58,831.62h62.44v10.32h-62.44v-10.32Z"/>
    <path class="cls-4" d="M-4384.01,706.5l-7.93,7.93c-3.54-2.36-7.34-4.03-11.39-5.02-4.05-.98-8.17-1.26-12.36-.84s-8.27,1.57-12.23,3.46c-3.96,1.89-7.65,4.53-11.05,7.93-5.46,5.46-9.01,11.84-10.65,19.17-1.64,7.33-1.06,15.08,1.75,23.26,2.81,8.18,8.2,16.25,16.15,24.21s16.1,13.42,24.27,16.22c8.17,2.8,15.91,3.37,23.22,1.71,7.31-1.66,13.69-5.22,19.15-10.67,3.4-3.4,6.04-7.09,7.93-11.05,1.88-3.96,3.04-8.03,3.48-12.21.44-4.17.15-8.29-.84-12.36-1-4.06-2.68-7.87-5.04-11.41l7.93-7.93c3.26,4.67,5.64,9.67,7.13,15.01,1.49,5.34,2.03,10.78,1.62,16.3-.41,5.53-1.82,10.93-4.24,16.22-2.42,5.29-5.93,10.24-10.54,14.85-7.25,7.25-15.51,11.87-24.78,13.85-9.26,1.98-18.81,1.25-28.64-2.19-9.83-3.44-19.25-9.68-28.28-18.7-9.03-9.03-15.26-18.45-18.71-28.28-3.44-9.83-4.17-19.37-2.19-28.64,1.98-9.26,6.6-17.52,13.85-24.78,4.61-4.61,9.55-8.13,14.82-10.57,5.27-2.43,10.68-3.85,16.22-4.24,5.54-.39,10.97.15,16.3,1.62,5.33,1.48,10.34,3.86,15.04,7.15Z"/>
    <path class="cls-4" d="M-4239.08,615.57h-125.85v-73h10.32v61.51h47.38v-57.64h10.33v57.64h47.5v-62.74h10.32v74.23Z"/>
  </g>
  <g>
    <path class="cls-3" d="M-3473.63,306.65l-23.07,23.07c-2.68-2.06-5.44-3.57-8.31-4.52-2.86-.95-5.75-1.32-8.67-1.11-2.92.22-5.81,1.03-8.67,2.45-2.86,1.42-5.58,3.41-8.17,6-4.58,4.58-7.4,9.65-8.47,15.2-1.06,5.55-.35,11.33,2.12,17.35,2.48,6.01,6.73,12.03,12.76,18.06,6.27,6.27,12.43,10.63,18.45,13.06,6.03,2.43,11.75,3.08,17.16,1.94,5.41-1.14,10.36-3.95,14.86-8.44,2.52-2.52,4.5-5.14,5.93-7.87,1.43-2.72,2.31-5.5,2.65-8.33.34-2.83.12-5.66-.65-8.49-.77-2.83-2.09-5.58-3.97-8.26l23.21-22.93c3.78,4.58,6.7,9.91,8.74,15.99,2.05,6.08,2.98,12.53,2.81,19.38-.17,6.84-1.78,13.77-4.84,20.76-3.06,7-7.84,13.74-14.33,20.23-8.55,8.55-18.09,14.32-28.61,17.3-10.52,2.98-21.35,2.81-32.48-.51-11.13-3.32-21.88-10.17-32.25-20.53-10.4-10.4-17.22-21.19-20.49-32.39-3.26-11.2-3.38-22.05-.37-32.57,3.01-10.52,8.72-19.98,17.12-28.37,5.72-5.72,11.8-10.22,18.25-13.5,6.44-3.27,13.03-5.24,19.75-5.9,6.72-.66,13.43.05,20.14,2.15,6.71,2.09,13.17,5.69,19.38,10.8Z"/>
    <path class="cls-3" d="M-3281.16,200.14v125.85h-30.42v-125.85h30.42Z"/>
    <path class="cls-3" d="M-3401.28,295.51c-2.4-1.43-4.34-3.36-5.84-5.78-1.49-2.42-2.26-5.1-2.3-8.05.04-4.34,1.67-8.06,4.89-11.15,3.22-3.09,6.91-4.64,11.09-4.64,4.42,0,8.2,1.55,11.34,4.64,3.13,3.09,4.68,6.81,4.64,11.15.04,4.43-1.5,8.19-4.64,11.31-3.13,3.11-6.91,4.67-11.34,4.67-2.83,0-5.44-.72-7.84-2.15Z"/>
    <path class="cls-3" d="M-3199.31,297.66c-4.42,0-8.2-1.56-11.34-4.67-3.13-3.11-4.68-6.88-4.64-11.31-.04-4.34,1.5-8.06,4.64-11.15,3.13-3.09,6.91-4.64,11.34-4.64,4.18,0,7.88,1.55,11.09,4.64,3.21,3.09,4.84,6.81,4.89,11.15-.04,2.95-.81,5.63-2.3,8.05-1.5,2.42-3.44,4.34-5.84,5.78-2.4,1.43-5.01,2.15-7.84,2.15Z"/>
    <path class="cls-3" d="M-3164.51,374.26l88.99-88.99,21.51,21.51-71.52,71.52,37.02,37.02-17.47,17.47-58.53-58.53Z"/>
    <path class="cls-3" d="M-3544.38,620.26c7.01-.7,12.58-3.79,16.72-9.28,4.14-5.49,6.21-12.39,6.21-20.71,0-5.86-1.01-11.01-3.01-15.46-2.01-4.45-4.78-7.93-8.33-10.45-3.54-2.52-7.57-3.78-12.08-3.78-3.32,0-6.23.72-8.73,2.15-2.5,1.43-4.64,3.37-6.42,5.81-1.78,2.44-3.31,5.14-4.58,8.11-1.27,2.97-2.33,5.97-3.19,9l-3.81,13.27c-1.11,4.01-2.52,8.03-4.24,12.04-1.72,4.01-3.88,7.69-6.48,11.03-2.6,3.34-5.78,6.02-9.52,8.05-3.75,2.03-8.25,3.04-13.49,3.04-6.72,0-12.76-1.74-18.13-5.22-5.37-3.48-9.62-8.48-12.75-14.99-3.14-6.52-4.7-14.32-4.7-23.41,0-8.56,1.42-16,4.27-22.31,2.85-6.31,6.79-11.27,11.83-14.87,5.04-3.61,10.88-5.63,17.51-6.09v11.8c-4.96.41-9.16,2.05-12.6,4.92-3.44,2.87-6.05,6.6-7.83,11.18-1.78,4.59-2.67,9.71-2.67,15.36,0,6.27,1.05,11.85,3.16,16.75,2.11,4.89,5.06,8.75,8.85,11.55,3.79,2.81,8.2,4.21,13.24,4.21,4.26,0,7.83-1.11,10.72-3.32,2.89-2.21,5.32-5.3,7.28-9.25,1.97-3.96,3.71-8.53,5.22-13.73l4.42-15.06c2.95-9.87,7.03-17.53,12.23-22.98,5.2-5.45,11.84-8.17,19.91-8.17,6.76,0,12.71,1.81,17.85,5.44,5.14,3.63,9.15,8.54,12.04,14.75,2.89,6.21,4.33,13.18,4.33,20.92s-1.44,14.75-4.3,20.77c-2.87,6.02-6.81,10.81-11.83,14.35-5.02,3.54-10.72,5.44-17.11,5.68v-11.12Z"/>
    <path class="cls-3" d="M-3539.95,780.3l88.99-88.99,28.72,28.72c6.31,6.31,10.38,12.8,12.21,19.47,1.82,6.66,1.74,13.14-.24,19.45-1.99,6.3-5.57,12.04-10.75,17.23-5.19,5.19-10.93,8.78-17.23,10.8-6.3,2.01-12.78,2.11-19.42.3-6.65-1.81-13.12-5.86-19.4-12.14l-22.6-22.6,7.3-7.3,22.38,22.38c4.66,4.66,9.41,7.65,14.23,8.97,4.82,1.32,9.52,1.22,14.08-.3,4.56-1.52,8.78-4.22,12.67-8.1,3.88-3.88,6.58-8.1,8.1-12.67,1.52-4.56,1.61-9.25.26-14.08-1.35-4.82-4.38-9.6-9.1-14.32l-20.38-20.38-81.69,81.69-8.13-8.13Z"/>
    <path class="cls-3" d="M-3336.24,879.86h-12.04l45.78-125.85h12.29l45.78,125.85h-12.04l-39.45-110.92h-.86l-39.45,110.92ZM-3327.58,831.62h62.44v10.32h-62.44v-10.32Z"/>
    <path class="cls-3" d="M-3104.01,706.5l-7.93,7.93c-3.54-2.36-7.34-4.03-11.39-5.02-4.05-.98-8.17-1.26-12.36-.84s-8.27,1.57-12.23,3.46c-3.96,1.89-7.65,4.53-11.05,7.93-5.46,5.46-9.01,11.84-10.65,19.17-1.64,7.33-1.06,15.08,1.75,23.26,2.81,8.18,8.2,16.25,16.15,24.21s16.1,13.42,24.27,16.22c8.17,2.8,15.91,3.37,23.22,1.71,7.31-1.66,13.69-5.22,19.15-10.67,3.4-3.4,6.04-7.09,7.93-11.05,1.88-3.96,3.04-8.03,3.48-12.21.44-4.17.15-8.29-.84-12.36-1-4.06-2.68-7.87-5.04-11.41l7.93-7.93c3.26,4.67,5.64,9.67,7.13,15.01,1.49,5.34,2.03,10.78,1.62,16.3-.41,5.53-1.82,10.93-4.24,16.22-2.42,5.29-5.93,10.24-10.54,14.85-7.25,7.25-15.51,11.87-24.78,13.85-9.26,1.98-18.81,1.25-28.64-2.19-9.83-3.44-19.25-9.68-28.28-18.7-9.03-9.03-15.26-18.45-18.71-28.28-3.44-9.83-4.17-19.37-2.19-28.64,1.98-9.26,6.6-17.52,13.85-24.78,4.61-4.61,9.55-8.13,14.82-10.57,5.27-2.43,10.68-3.85,16.22-4.24,5.54-.39,10.97.15,16.3,1.62,5.33,1.48,10.34,3.86,15.04,7.15Z"/>
    <path class="cls-3" d="M-2959.08,615.57h-125.85v-73h10.32v61.51h47.38v-57.64h10.33v57.64h47.5v-62.74h10.32v74.23Z"/>
  </g>
  <g>
    <path class="cls-2" d="M-2193.63,306.65l-23.07,23.07c-2.68-2.06-5.44-3.57-8.31-4.52-2.86-.95-5.75-1.32-8.67-1.11-2.92.22-5.81,1.03-8.67,2.45-2.86,1.42-5.58,3.41-8.17,6-4.58,4.58-7.4,9.65-8.47,15.2-1.06,5.55-.35,11.33,2.12,17.35,2.48,6.01,6.73,12.03,12.76,18.06,6.27,6.27,12.43,10.63,18.45,13.06,6.03,2.43,11.75,3.08,17.16,1.94,5.41-1.14,10.36-3.95,14.86-8.44,2.52-2.52,4.5-5.14,5.93-7.87,1.43-2.72,2.31-5.5,2.65-8.33.34-2.83.12-5.66-.65-8.49-.77-2.83-2.09-5.58-3.97-8.26l23.21-22.93c3.78,4.58,6.7,9.91,8.74,15.99,2.05,6.08,2.98,12.53,2.81,19.38-.17,6.84-1.78,13.77-4.84,20.76-3.06,7-7.84,13.74-14.33,20.23-8.55,8.55-18.09,14.32-28.61,17.3-10.52,2.98-21.35,2.81-32.48-.51-11.13-3.32-21.88-10.17-32.25-20.53-10.4-10.4-17.22-21.19-20.49-32.39-3.26-11.2-3.38-22.05-.37-32.57,3.01-10.52,8.72-19.98,17.12-28.37,5.72-5.72,11.8-10.22,18.25-13.5,6.44-3.27,13.03-5.24,19.75-5.9,6.72-.66,13.43.05,20.14,2.15,6.71,2.09,13.17,5.69,19.38,10.8Z"/>
    <path class="cls-2" d="M-2001.16,200.14v125.85h-30.42v-125.85h30.42Z"/>
    <path class="cls-2" d="M-2121.28,295.51c-2.4-1.43-4.34-3.36-5.84-5.78-1.49-2.42-2.26-5.1-2.3-8.05.04-4.34,1.67-8.06,4.89-11.15,3.22-3.09,6.91-4.64,11.09-4.64,4.42,0,8.2,1.55,11.34,4.64,3.13,3.09,4.68,6.81,4.64,11.15.04,4.43-1.5,8.19-4.64,11.31-3.13,3.11-6.91,4.67-11.34,4.67-2.83,0-5.44-.72-7.84-2.15Z"/>
    <path class="cls-2" d="M-1919.31,297.66c-4.42,0-8.2-1.56-11.34-4.67-3.13-3.11-4.68-6.88-4.64-11.31-.04-4.34,1.5-8.06,4.64-11.15,3.13-3.09,6.91-4.64,11.34-4.64,4.18,0,7.88,1.55,11.09,4.64,3.21,3.09,4.84,6.81,4.89,11.15-.04,2.95-.81,5.63-2.3,8.05-1.5,2.42-3.44,4.34-5.84,5.78-2.4,1.43-5.01,2.15-7.84,2.15Z"/>
    <path class="cls-2" d="M-1884.51,374.26l88.99-88.99,21.51,21.51-71.52,71.52,37.02,37.02-17.47,17.47-58.53-58.53Z"/>
    <path class="cls-2" d="M-2264.38,620.26c7.01-.7,12.58-3.79,16.72-9.28,4.14-5.49,6.21-12.39,6.21-20.71,0-5.86-1.01-11.01-3.01-15.46-2.01-4.45-4.78-7.93-8.33-10.45-3.54-2.52-7.57-3.78-12.08-3.78-3.32,0-6.23.72-8.73,2.15-2.5,1.43-4.64,3.37-6.42,5.81-1.78,2.44-3.31,5.14-4.58,8.11-1.27,2.97-2.33,5.97-3.19,9l-3.81,13.27c-1.11,4.01-2.52,8.03-4.24,12.04-1.72,4.01-3.88,7.69-6.48,11.03-2.6,3.34-5.78,6.02-9.52,8.05-3.75,2.03-8.25,3.04-13.49,3.04-6.72,0-12.76-1.74-18.13-5.22-5.37-3.48-9.62-8.48-12.75-14.99-3.14-6.52-4.7-14.32-4.7-23.41,0-8.56,1.42-16,4.27-22.31,2.85-6.31,6.79-11.27,11.83-14.87,5.04-3.61,10.88-5.63,17.51-6.09v11.8c-4.96.41-9.16,2.05-12.6,4.92-3.44,2.87-6.05,6.6-7.83,11.18-1.78,4.59-2.67,9.71-2.67,15.36,0,6.27,1.05,11.85,3.16,16.75,2.11,4.89,5.06,8.75,8.85,11.55,3.79,2.81,8.2,4.21,13.24,4.21,4.26,0,7.83-1.11,10.72-3.32,2.89-2.21,5.32-5.3,7.28-9.25,1.97-3.96,3.71-8.53,5.22-13.73l4.42-15.06c2.95-9.87,7.03-17.53,12.23-22.98,5.2-5.45,11.84-8.17,19.91-8.17,6.76,0,12.71,1.81,17.85,5.44,5.14,3.63,9.15,8.54,12.04,14.75,2.89,6.21,4.33,13.18,4.33,20.92s-1.44,14.75-4.3,20.77c-2.87,6.02-6.81,10.81-11.83,14.35-5.02,3.54-10.72,5.44-17.11,5.68v-11.12Z"/>
    <path class="cls-2" d="M-2259.95,780.3l88.99-88.99,28.72,28.72c6.31,6.31,10.38,12.8,12.21,19.47,1.82,6.66,1.74,13.14-.24,19.45-1.99,6.3-5.57,12.04-10.75,17.23-5.19,5.19-10.93,8.78-17.23,10.8-6.3,2.01-12.78,2.11-19.42.3-6.65-1.81-13.12-5.86-19.4-12.14l-22.6-22.6,7.3-7.3,22.38,22.38c4.66,4.66,9.41,7.65,14.23,8.97,4.82,1.32,9.52,1.22,14.08-.3,4.56-1.52,8.78-4.22,12.67-8.1,3.88-3.88,6.58-8.1,8.1-12.67,1.52-4.56,1.61-9.25.26-14.08-1.35-4.82-4.38-9.6-9.1-14.32l-20.38-20.38-81.69,81.69-8.13-8.13Z"/>
    <path class="cls-2" d="M-2056.24,879.86h-12.04l45.78-125.85h12.29l45.78,125.85h-12.04l-39.45-110.92h-.86l-39.45,110.92ZM-2047.58,831.62h62.44v10.32h-62.44v-10.32Z"/>
    <path class="cls-2" d="M-1824.01,706.5l-7.93,7.93c-3.54-2.36-7.34-4.03-11.39-5.02-4.05-.98-8.17-1.26-12.36-.84s-8.27,1.57-12.23,3.46c-3.96,1.89-7.65,4.53-11.05,7.93-5.46,5.46-9.01,11.84-10.65,19.17-1.64,7.33-1.06,15.08,1.75,23.26,2.81,8.18,8.2,16.25,16.15,24.21,8.01,8.01,16.1,13.42,24.27,16.22,8.17,2.8,15.91,3.37,23.22,1.71,7.31-1.66,13.69-5.22,19.15-10.67,3.4-3.4,6.04-7.09,7.93-11.05,1.88-3.96,3.04-8.03,3.48-12.21.44-4.17.15-8.29-.84-12.36-1-4.06-2.68-7.87-5.04-11.41l7.93-7.93c3.26,4.67,5.64,9.67,7.13,15.01,1.49,5.34,2.03,10.78,1.62,16.3-.41,5.53-1.82,10.93-4.24,16.22-2.42,5.29-5.93,10.24-10.54,14.85-7.25,7.25-15.51,11.87-24.78,13.85-9.26,1.98-18.81,1.25-28.64-2.19-9.83-3.44-19.25-9.68-28.28-18.7-9.03-9.03-15.26-18.45-18.71-28.28-3.44-9.83-4.17-19.37-2.19-28.64,1.98-9.26,6.6-17.52,13.85-24.78,4.61-4.61,9.55-8.13,14.82-10.57,5.27-2.43,10.68-3.85,16.22-4.24,5.54-.39,10.97.15,16.3,1.62,5.33,1.48,10.34,3.86,15.04,7.15Z"/>
    <path class="cls-2" d="M-1679.08,615.57h-125.85v-73h10.32v61.51h47.38v-57.64h10.33v57.64h47.5v-62.74h10.32v74.23Z"/>
  </g>
  <g>
    <path class="cls-5" d="M-913.63,306.65l-23.07,23.07c-2.68-2.06-5.44-3.57-8.31-4.52-2.86-.95-5.75-1.32-8.67-1.11-2.92.22-5.81,1.03-8.67,2.45-2.86,1.42-5.58,3.41-8.17,6-4.58,4.58-7.4,9.65-8.47,15.2-1.06,5.55-.35,11.33,2.12,17.35,2.48,6.01,6.73,12.03,12.76,18.06,6.27,6.27,12.43,10.63,18.45,13.06,6.03,2.43,11.75,3.08,17.16,1.94,5.41-1.14,10.36-3.95,14.86-8.44,2.52-2.52,4.5-5.14,5.93-7.87,1.43-2.72,2.31-5.5,2.65-8.33.34-2.83.12-5.66-.65-8.49-.77-2.83-2.09-5.58-3.97-8.26l23.21-22.93c3.78,4.58,6.7,9.91,8.74,15.99,2.05,6.08,2.98,12.53,2.81,19.38-.17,6.84-1.78,13.77-4.84,20.76-3.06,7-7.84,13.74-14.33,20.23-8.55,8.55-18.09,14.32-28.61,17.3-10.52,2.98-21.35,2.81-32.48-.51-11.13-3.32-21.88-10.17-32.25-20.53-10.4-10.4-17.22-21.19-20.49-32.39-3.26-11.2-3.38-22.05-.37-32.57,3.01-10.52,8.72-19.98,17.12-28.37,5.72-5.72,11.8-10.22,18.25-13.5,6.44-3.27,13.03-5.24,19.75-5.9,6.72-.66,13.43.05,20.14,2.15,6.71,2.09,13.17,5.69,19.38,10.8Z"/>
    <path class="cls-5" d="M-721.16,200.14v125.85h-30.42v-125.85h30.42Z"/>
    <path class="cls-5" d="M-841.28,295.51c-2.4-1.43-4.34-3.36-5.84-5.78-1.49-2.42-2.26-5.1-2.3-8.05.04-4.34,1.67-8.06,4.89-11.15,3.22-3.09,6.91-4.64,11.09-4.64,4.42,0,8.2,1.55,11.34,4.64,3.13,3.09,4.68,6.81,4.64,11.15.04,4.43-1.5,8.19-4.64,11.31-3.13,3.11-6.91,4.67-11.34,4.67-2.83,0-5.44-.72-7.84-2.15Z"/>
    <path class="cls-5" d="M-639.31,297.66c-4.42,0-8.2-1.56-11.34-4.67-3.13-3.11-4.68-6.88-4.64-11.31-.04-4.34,1.5-8.06,4.64-11.15,3.13-3.09,6.91-4.64,11.34-4.64,4.18,0,7.88,1.55,11.09,4.64,3.21,3.09,4.84,6.81,4.89,11.15-.04,2.95-.81,5.63-2.3,8.05-1.5,2.42-3.44,4.34-5.84,5.78-2.4,1.43-5.01,2.15-7.84,2.15Z"/>
    <path class="cls-5" d="M-604.51,374.26l88.99-88.99,21.51,21.51-71.52,71.52,37.02,37.02-17.47,17.47-58.53-58.53Z"/>
    <path class="cls-5" d="M-984.38,620.26c7.01-.7,12.58-3.79,16.72-9.28,4.14-5.49,6.21-12.39,6.21-20.71,0-5.86-1.01-11.01-3.01-15.46-2.01-4.45-4.78-7.93-8.33-10.45-3.54-2.52-7.57-3.78-12.08-3.78-3.32,0-6.23.72-8.73,2.15-2.5,1.43-4.64,3.37-6.42,5.81-1.78,2.44-3.31,5.14-4.58,8.11-1.27,2.97-2.33,5.97-3.19,9l-3.81,13.27c-1.11,4.01-2.52,8.03-4.24,12.04-1.72,4.01-3.88,7.69-6.48,11.03-2.6,3.34-5.78,6.02-9.52,8.05-3.75,2.03-8.25,3.04-13.49,3.04-6.72,0-12.76-1.74-18.13-5.22-5.37-3.48-9.62-8.48-12.75-14.99-3.14-6.52-4.7-14.32-4.7-23.41,0-8.56,1.42-16,4.27-22.31,2.85-6.31,6.79-11.27,11.83-14.87,5.04-3.61,10.88-5.63,17.51-6.09v11.8c-4.96.41-9.16,2.05-12.6,4.92-3.44,2.87-6.05,6.6-7.83,11.18-1.78,4.59-2.67,9.71-2.67,15.36,0,6.27,1.05,11.85,3.16,16.75,2.11,4.89,5.06,8.75,8.85,11.55,3.79,2.81,8.2,4.21,13.24,4.21,4.26,0,7.83-1.11,10.72-3.32,2.89-2.21,5.32-5.3,7.28-9.25,1.97-3.96,3.71-8.53,5.22-13.73l4.42-15.06c2.95-9.87,7.03-17.53,12.23-22.98,5.2-5.45,11.84-8.17,19.91-8.17,6.76,0,12.71,1.81,17.85,5.44,5.14,3.63,9.15,8.54,12.04,14.75,2.89,6.21,4.33,13.18,4.33,20.92s-1.44,14.75-4.3,20.77c-2.87,6.02-6.81,10.81-11.83,14.35-5.02,3.54-10.72,5.44-17.11,5.68v-11.12Z"/>
    <path class="cls-5" d="M-979.95,780.3l88.99-88.99,28.72,28.72c6.31,6.31,10.38,12.8,12.21,19.47,1.82,6.66,1.74,13.14-.24,19.45-1.99,6.3-5.57,12.04-10.75,17.23-5.19,5.19-10.93,8.78-17.23,10.8-6.3,2.01-12.78,2.11-19.42.3-6.65-1.81-13.12-5.86-19.4-12.14l-22.6-22.6,7.3-7.3,22.38,22.38c4.66,4.66,9.41,7.65,14.23,8.97,4.82,1.32,9.52,1.22,14.08-.3,4.56-1.52,8.78-4.22,12.67-8.1,3.88-3.88,6.58-8.1,8.1-12.67,1.52-4.56,1.61-9.25.26-14.08-1.35-4.82-4.38-9.6-9.1-14.32l-20.38-20.38-81.69,81.69-8.13-8.13Z"/>
    <path class="cls-5" d="M-776.24,879.86h-12.04l45.78-125.85h12.29l45.78,125.85h-12.04l-39.45-110.92h-.86l-39.45,110.92ZM-767.58,831.62h62.44v10.32h-62.44v-10.32Z"/>
    <path class="cls-5" d="M-544.01,706.5l-7.93,7.93c-3.54-2.36-7.34-4.03-11.39-5.02-4.05-.98-8.17-1.26-12.36-.84s-8.27,1.57-12.23,3.46c-3.96,1.89-7.65,4.53-11.05,7.93-5.46,5.46-9.01,11.84-10.65,19.17-1.64,7.33-1.06,15.08,1.75,23.26,2.81,8.18,8.2,16.25,16.15,24.21,8.01,8.01,16.1,13.42,24.27,16.22,8.17,2.8,15.91,3.37,23.22,1.71,7.31-1.66,13.69-5.22,19.15-10.67,3.4-3.4,6.04-7.09,7.93-11.05,1.88-3.96,3.04-8.03,3.48-12.21.44-4.17.15-8.29-.84-12.36-1-4.06-2.68-7.87-5.04-11.41l7.93-7.93c3.26,4.67,5.64,9.67,7.13,15.01,1.49,5.34,2.03,10.78,1.62,16.3-.41,5.53-1.82,10.93-4.24,16.22-2.42,5.29-5.93,10.24-10.54,14.85-7.25,7.25-15.51,11.87-24.78,13.85-9.26,1.98-18.81,1.25-28.64-2.19-9.83-3.44-19.25-9.68-28.28-18.7-9.03-9.03-15.26-18.45-18.71-28.28-3.44-9.83-4.17-19.37-2.19-28.64,1.98-9.26,6.6-17.52,13.85-24.78,4.61-4.61,9.55-8.13,14.82-10.57,5.27-2.43,10.68-3.85,16.22-4.24,5.54-.39,10.97.15,16.3,1.62,5.33,1.48,10.34,3.86,15.04,7.15Z"/>
    <path class="cls-5" d="M-399.08,615.57h-125.85v-73h10.32v61.51h47.38v-57.64h10.33v57.64h47.5v-62.74h10.32v74.23Z"/>
  </g>
  <g>
    <path class="cls-1" d="M425.11-1554.68v114.89c41.82,0,81.07,11.21,114.89,30.79,33.82-19.58,73.07-30.79,114.89-30.79v-114.89h-229.79ZM540-1011c-33.82,19.58-73.07,30.79-114.89,30.79v114.89h229.79v-114.89c-41.82,0-81.07-11.21-114.89-30.79ZM540-1409c-68.66,39.62-114.89,113.88-114.89,199s46.23,159.38,114.89,199c68.66-39.62,114.89-113.88,114.89-199s-46.23-159.38-114.89-199Z"/>
    <path class="cls-1" d="M390.64-1437.21v454.43c-110.57-16.59-195.32-112-195.32-227.21s84.75-210.62,195.32-227.21Z"/>
    <path class="cls-1" d="M654.89-1210c0,85.11-46.23,159.38-114.89,199-68.66-39.62-114.89-113.88-114.89-199s46.23-159.38,114.89-199c68.66,39.62,114.89,113.88,114.89,199Z"/>
    <path class="cls-1" d="M654.89-1210c0,85.11-46.23,159.38-114.89,199-68.66-39.62-114.89-113.88-114.89-199s46.23-159.38,114.89-199c68.66,39.62,114.89,113.88,114.89,199Z"/>
    <path class="cls-1" d="M884.68-1210c0,115.22-84.75,210.62-195.32,227.21v-454.43c110.57,16.59,195.32,112,195.32,227.21Z"/>
  </g>
  <g>
    <path class="cls-1" d="M168.63-346.91h-20.9c-.28-2.15-.85-4.08-1.71-5.81-.86-1.73-2.01-3.2-3.43-4.43-1.42-1.23-3.1-2.17-5.04-2.82-1.94-.65-4.08-.98-6.42-.98-4.15,0-7.73,1.02-10.72,3.05-3,2.03-5.3,4.97-6.9,8.82-1.6,3.85-2.4,8.5-2.4,13.96s.81,10.44,2.44,14.27c1.63,3.83,3.93,6.72,6.9,8.65,2.97,1.94,6.49,2.9,10.55,2.9,2.28,0,4.37-.29,6.25-.88,1.88-.59,3.54-1.44,4.97-2.57,1.44-1.13,2.62-2.51,3.55-4.14.93-1.63,1.58-3.48,1.94-5.54l20.9.12c-.36,3.79-1.46,7.52-3.28,11.2-1.83,3.68-4.33,7.03-7.5,10.05-3.18,3.02-7.04,5.43-11.6,7.21-4.56,1.78-9.77,2.68-15.65,2.68-7.75,0-14.68-1.71-20.8-5.12-6.12-3.41-10.94-8.4-14.48-14.94-3.54-6.55-5.31-14.52-5.31-23.91s1.8-17.4,5.39-23.95c3.6-6.55,8.46-11.52,14.59-14.92,6.13-3.4,13-5.1,20.61-5.1,5.18,0,9.98.72,14.38,2.15,4.4,1.44,8.28,3.53,11.62,6.27,3.34,2.75,6.06,6.11,8.15,10.09,2.09,3.99,3.39,8.54,3.89,13.67Z"/>
    <path class="cls-1" d="M203.66-324.32c-3.01,0-5.58-1.06-7.71-3.18-2.13-2.12-3.18-4.68-3.16-7.69-.03-2.95,1.02-5.48,3.16-7.59,2.13-2.1,4.7-3.16,7.71-3.16,2.84,0,5.36,1.05,7.55,3.16,2.19,2.1,3.3,4.63,3.32,7.59-.03,2.01-.55,3.83-1.57,5.48-1.02,1.64-2.34,2.95-3.97,3.93-1.63.98-3.41,1.46-5.33,1.46Z"/>
    <path class="cls-1" d="M270.43-377.93v85.61h-20.69v-85.61h20.69Z"/>
    <path class="cls-1" d="M316.49-324.32c-3.01,0-5.58-1.06-7.71-3.18-2.13-2.12-3.18-4.68-3.16-7.69-.03-2.95,1.02-5.48,3.16-7.59,2.13-2.1,4.7-3.16,7.71-3.16,2.84,0,5.36,1.05,7.55,3.16,2.19,2.1,3.29,4.63,3.32,7.59-.03,2.01-.55,3.83-1.57,5.48-1.02,1.64-2.34,2.95-3.97,3.93-1.63.98-3.41,1.46-5.33,1.46Z"/>
    <path class="cls-1" d="M362.49-292.32v-85.61h20.69v68.8h35.61v16.8h-56.3Z"/>
    <path class="cls-1" d="M524.23-356.53c-.48-4.77-2.58-8.56-6.31-11.37-3.73-2.81-8.43-4.22-14.09-4.22-3.99,0-7.49.68-10.51,2.05-3.02,1.36-5.39,3.25-7.1,5.66-1.71,2.41-2.57,5.15-2.57,8.21,0,2.26.49,4.24,1.46,5.94.98,1.7,2.29,3.15,3.95,4.37,1.66,1.21,3.5,2.25,5.52,3.11,2.02.86,4.06,1.59,6.12,2.17l9.03,2.59c2.73.75,5.46,1.71,8.19,2.88s5.23,2.64,7.5,4.41c2.27,1.77,4.1,3.93,5.48,6.48,1.38,2.55,2.07,5.61,2.07,9.18,0,4.57-1.19,8.68-3.55,12.33-2.37,3.65-5.77,6.54-10.2,8.67-4.43,2.13-9.74,3.2-15.93,3.2-5.82,0-10.88-.97-15.17-2.91-4.29-1.94-7.66-4.62-10.12-8.05-2.45-3.43-3.83-7.4-4.14-11.91h8.03c.28,3.37,1.39,6.23,3.34,8.57,1.95,2.34,4.49,4.12,7.61,5.33,3.12,1.21,6.6,1.82,10.45,1.82,4.26,0,8.06-.72,11.39-2.15,3.33-1.44,5.95-3.44,7.86-6.02,1.91-2.58,2.86-5.58,2.86-9.01,0-2.9-.75-5.33-2.26-7.29-1.51-1.96-3.6-3.62-6.29-4.95-2.69-1.34-5.8-2.52-9.34-3.55l-10.24-3.01c-6.72-2.01-11.93-4.78-15.63-8.32-3.71-3.54-5.56-8.05-5.56-13.54,0-4.6,1.23-8.64,3.7-12.14,2.47-3.5,5.81-6.23,10.03-8.19,4.22-1.97,8.97-2.95,14.23-2.95s10.03.98,14.13,2.93c4.1,1.95,7.35,4.63,9.76,8.05,2.41,3.41,3.7,7.29,3.87,11.64h-7.57Z"/>
    <path class="cls-1" d="M592.55-292.32v-85.61h27.63c6.07,0,11.15,1.16,15.24,3.49,4.08,2.33,7.16,5.48,9.24,9.47,2.07,3.99,3.11,8.47,3.11,13.46s-1.03,9.48-3.09,13.48c-2.06,4-5.13,7.16-9.2,9.49-4.07,2.33-9.13,3.49-15.17,3.49h-21.74v-7.02h21.53c4.49,0,8.21-.84,11.16-2.53,2.95-1.69,5.16-3.99,6.63-6.92,1.46-2.93,2.19-6.26,2.19-9.99s-.73-7.06-2.19-9.99c-1.46-2.93-3.68-5.22-6.65-6.9-2.97-1.67-6.72-2.51-11.27-2.51h-19.6v78.58h-7.82Z"/>
    <path class="cls-1" d="M700.34-292.32h-8.19l31.14-85.61h8.36l31.14,85.61h-8.19l-26.84-75.45h-.59l-26.84,75.45ZM706.24-325.14h42.47v7.02h-42.47v-7.02Z"/>
    <path class="cls-1" d="M880.92-351.18h-7.86c-.59-2.93-1.64-5.64-3.16-8.13-1.52-2.49-3.42-4.67-5.71-6.54-2.28-1.87-4.88-3.32-7.77-4.35-2.9-1.03-6.03-1.55-9.41-1.55-5.41,0-10.33,1.41-14.78,4.22-4.44,2.81-8,6.95-10.66,12.39-2.66,5.45-3.99,12.12-3.99,20s1.33,14.63,3.99,20.06c2.66,5.43,6.21,9.55,10.66,12.35,4.44,2.8,9.37,4.2,14.78,4.2,3.37,0,6.51-.52,9.41-1.55,2.9-1.03,5.49-2.47,7.77-4.33,2.28-1.85,4.19-4.03,5.71-6.54,1.52-2.51,2.57-5.22,3.16-8.15h7.86c-.7,3.93-2,7.59-3.91,10.97-1.91,3.39-4.33,6.35-7.27,8.88-2.94,2.54-6.32,4.51-10.14,5.94-3.82,1.42-8.01,2.13-12.58,2.13-7.19,0-13.57-1.8-19.14-5.41-5.57-3.61-9.94-8.7-13.1-15.28-3.16-6.58-4.74-14.34-4.74-23.28s1.58-16.71,4.74-23.28c3.16-6.58,7.53-11.67,13.1-15.28,5.57-3.61,11.96-5.41,19.14-5.41,4.57,0,8.76.7,12.58,2.11,3.82,1.41,7.2,3.39,10.14,5.94,2.94,2.55,5.36,5.51,7.27,8.88,1.91,3.37,3.21,7.04,3.91,10.99Z"/>
    <path class="cls-1" d="M939.51-292.32v-85.61h49.66v7.02h-41.84v32.23h39.21v7.02h-39.21v32.31h42.68v7.02h-50.49Z"/>
  </g>
  <g>
    <path class="cls-1" d="M366.37,306.65l-23.07,23.07c-2.68-2.06-5.44-3.57-8.31-4.52-2.86-.95-5.75-1.32-8.67-1.11-2.92.22-5.81,1.03-8.67,2.45-2.86,1.42-5.58,3.41-8.17,6-4.58,4.58-7.4,9.65-8.47,15.2-1.06,5.55-.35,11.33,2.12,17.35,2.48,6.01,6.73,12.03,12.76,18.06,6.27,6.27,12.43,10.63,18.45,13.06,6.03,2.43,11.75,3.08,17.16,1.94,5.41-1.14,10.36-3.95,14.86-8.44,2.52-2.52,4.5-5.14,5.93-7.87,1.43-2.72,2.31-5.5,2.65-8.33.34-2.83.12-5.66-.65-8.49-.77-2.83-2.09-5.58-3.97-8.26l23.21-22.93c3.78,4.58,6.7,9.91,8.74,15.99,2.05,6.08,2.98,12.53,2.81,19.38-.17,6.84-1.78,13.77-4.84,20.76-3.06,7-7.84,13.74-14.33,20.23-8.55,8.55-18.09,14.32-28.61,17.3-10.52,2.98-21.35,2.81-32.48-.51-11.13-3.32-21.88-10.17-32.25-20.53-10.4-10.4-17.22-21.19-20.49-32.39-3.26-11.2-3.38-22.05-.37-32.57,3.01-10.52,8.72-19.98,17.12-28.37,5.72-5.72,11.8-10.22,18.25-13.5,6.44-3.27,13.03-5.24,19.75-5.9,6.72-.66,13.43.05,20.14,2.15,6.71,2.09,13.17,5.69,19.38,10.8Z"/>
    <path class="cls-1" d="M558.84,200.14v125.85h-30.42v-125.85h30.42Z"/>
    <path class="cls-1" d="M438.72,295.51c-2.4-1.43-4.34-3.36-5.84-5.78-1.49-2.42-2.26-5.1-2.3-8.05.04-4.34,1.67-8.06,4.89-11.15,3.22-3.09,6.91-4.64,11.09-4.64,4.42,0,8.2,1.55,11.34,4.64,3.13,3.09,4.68,6.81,4.64,11.15.04,4.43-1.5,8.19-4.64,11.31-3.13,3.11-6.91,4.67-11.34,4.67-2.83,0-5.44-.72-7.84-2.15Z"/>
    <path class="cls-1" d="M640.69,297.66c-4.42,0-8.2-1.56-11.34-4.67-3.13-3.11-4.68-6.88-4.64-11.31-.04-4.34,1.5-8.06,4.64-11.15,3.13-3.09,6.91-4.64,11.34-4.64,4.18,0,7.88,1.55,11.09,4.64,3.21,3.09,4.84,6.81,4.89,11.15-.04,2.95-.81,5.63-2.3,8.05-1.5,2.42-3.44,4.34-5.84,5.78-2.4,1.43-5.01,2.15-7.84,2.15Z"/>
    <path class="cls-1" d="M675.49,374.26l88.99-88.99,21.51,21.51-71.52,71.52,37.02,37.02-17.47,17.47-58.53-58.53Z"/>
    <path class="cls-1" d="M295.62,620.26c7.01-.7,12.58-3.79,16.72-9.28,4.14-5.49,6.21-12.39,6.21-20.71,0-5.86-1.01-11.01-3.01-15.46-2.01-4.45-4.78-7.93-8.33-10.45-3.54-2.52-7.57-3.78-12.08-3.78-3.32,0-6.23.72-8.73,2.15-2.5,1.43-4.64,3.37-6.42,5.81-1.78,2.44-3.31,5.14-4.58,8.11-1.27,2.97-2.33,5.97-3.19,9l-3.81,13.27c-1.11,4.01-2.52,8.03-4.24,12.04-1.72,4.01-3.88,7.69-6.48,11.03-2.6,3.34-5.78,6.02-9.52,8.05-3.75,2.03-8.25,3.04-13.49,3.04-6.72,0-12.76-1.74-18.13-5.22-5.37-3.48-9.62-8.48-12.75-14.99-3.14-6.52-4.7-14.32-4.7-23.41,0-8.56,1.42-16,4.27-22.31,2.85-6.31,6.79-11.27,11.83-14.87,5.04-3.61,10.88-5.63,17.51-6.09v11.8c-4.96.41-9.16,2.05-12.6,4.92-3.44,2.87-6.05,6.6-7.83,11.18-1.78,4.59-2.67,9.71-2.67,15.36,0,6.27,1.05,11.85,3.16,16.75,2.11,4.89,5.06,8.75,8.85,11.55,3.79,2.81,8.2,4.21,13.24,4.21,4.26,0,7.83-1.11,10.72-3.32,2.89-2.21,5.32-5.3,7.28-9.25,1.97-3.96,3.71-8.53,5.22-13.73l4.42-15.06c2.95-9.87,7.03-17.53,12.23-22.98,5.2-5.45,11.84-8.17,19.91-8.17,6.76,0,12.71,1.81,17.85,5.44,5.14,3.63,9.15,8.54,12.04,14.75,2.89,6.21,4.33,13.18,4.33,20.92s-1.44,14.75-4.3,20.77c-2.87,6.02-6.81,10.81-11.83,14.35-5.02,3.54-10.72,5.44-17.11,5.68v-11.12Z"/>
    <path class="cls-1" d="M300.05,780.3l88.99-88.99,28.72,28.72c6.31,6.31,10.38,12.8,12.21,19.47,1.82,6.66,1.74,13.14-.24,19.45-1.99,6.3-5.57,12.04-10.75,17.23-5.19,5.19-10.93,8.78-17.23,10.8-6.3,2.01-12.78,2.11-19.42.3-6.65-1.81-13.12-5.86-19.4-12.14l-22.6-22.6,7.3-7.3,22.38,22.38c4.66,4.66,9.41,7.65,14.23,8.97,4.82,1.32,9.52,1.22,14.08-.3,4.56-1.52,8.78-4.22,12.67-8.1,3.88-3.88,6.58-8.1,8.1-12.67,1.52-4.56,1.61-9.25.26-14.08-1.35-4.82-4.38-9.6-9.1-14.32l-20.38-20.38-81.69,81.69-8.13-8.13Z"/>
    <path class="cls-1" d="M503.76,879.86h-12.04l45.78-125.85h12.29l45.78,125.85h-12.04l-39.45-110.92h-.86l-39.45,110.92ZM512.42,831.62h62.44v10.32h-62.44v-10.32Z"/>
    <path class="cls-1" d="M735.99,706.5l-7.93,7.93c-3.54-2.36-7.34-4.03-11.39-5.02-4.05-.98-8.17-1.26-12.36-.84s-8.27,1.57-12.23,3.46c-3.96,1.89-7.65,4.53-11.05,7.93-5.46,5.46-9.01,11.84-10.65,19.17-1.64,7.33-1.06,15.08,1.75,23.26,2.81,8.18,8.2,16.25,16.15,24.21,8.01,8.01,16.1,13.42,24.27,16.22,8.17,2.8,15.91,3.37,23.22,1.71,7.31-1.66,13.69-5.22,19.15-10.67,3.4-3.4,6.04-7.09,7.93-11.05,1.88-3.96,3.04-8.03,3.48-12.21.44-4.17.15-8.29-.84-12.36-1-4.06-2.68-7.87-5.04-11.41l7.93-7.93c3.26,4.67,5.64,9.67,7.13,15.01,1.49,5.34,2.03,10.78,1.62,16.3-.41,5.53-1.82,10.93-4.24,16.22-2.42,5.29-5.93,10.24-10.54,14.85-7.25,7.25-15.51,11.87-24.78,13.85-9.26,1.98-18.81,1.25-28.64-2.19-9.83-3.44-19.25-9.68-28.28-18.7-9.03-9.03-15.26-18.45-18.71-28.28-3.44-9.83-4.17-19.37-2.19-28.64,1.98-9.26,6.6-17.52,13.85-24.78,4.61-4.61,9.55-8.13,14.82-10.57,5.27-2.43,10.68-3.85,16.22-4.24,5.54-.39,10.97.15,16.3,1.62,5.33,1.48,10.34,3.86,15.04,7.15Z"/>
    <path class="cls-1" d="M880.92,615.57h-125.85v-73h10.32v61.51h47.38v-57.64h10.33v57.64h47.5v-62.74h10.32v74.23Z"/>
  </g>
</svg>