<?xml version="1.0" encoding="UTF-8"?>
<svg version="1.1" xmlns="http://www.w3.org/2000/svg" width="500" height="500">
<path d="M0 0 C165 0 330 0 500 0 C500 165 500 330 500 500 C335 500 170 500 0 500 C0 335 0 170 0 0 Z " fill="#FEFEFE" transform="translate(0,0)"/>
<path d="M0 0 C7.40754503 5.42317003 7.40754503 5.42317003 9.6328125 7.6484375 C12.71194303 7.75002001 15.7688609 7.78553974 18.848526 7.77973938 C19.82787202 7.78185509 20.80721804 7.78397081 21.8162412 7.78615063 C25.12498233 7.79218146 28.43368565 7.79114829 31.74243164 7.7902832 C34.10395371 7.79331273 36.46547519 7.7968336 38.82699585 7.80081177 C43.92674386 7.80871818 49.02648481 7.81385227 54.12623787 7.81710243 C62.18952164 7.82259352 70.25276297 7.83948659 78.31602478 7.85844421 C81.07367413 7.86480162 83.83132359 7.87111001 86.58897305 7.87742138 C87.62287395 7.87979702 87.62287395 7.87979702 88.67766174 7.88222066 C96.53014057 7.90017024 104.38262243 7.91638894 112.23510742 7.93139648 C112.9531816 7.93277236 113.67125577 7.93414823 114.41108977 7.93556579 C126.03566747 7.95747395 137.66023428 7.96824608 149.28482897 7.97576723 C161.21787904 7.98384381 173.15083586 8.00715434 185.08383268 8.0437209 C191.78437497 8.06375702 198.48474396 8.07587998 205.1853199 8.07088661 C211.49150293 8.06624478 217.79737601 8.08002081 224.10349655 8.10789871 C226.41737157 8.11481906 228.73127859 8.11492804 231.04515266 8.10769844 C234.20654198 8.09881917 237.36690729 8.11449027 240.5282135 8.13618469 C241.44194719 8.12774216 242.35568088 8.11929962 243.29710346 8.11060125 C250.30048668 8.19933778 255.56844022 9.96310778 260.875 14.61328125 C261.41382813 15.26425781 261.95265625 15.91523438 262.5078125 16.5859375 C263.06210937 17.23433594 263.61640625 17.88273437 264.1875 18.55078125 C267.38719081 23.19465683 267.88950183 27.18805718 267.92333984 32.77441406 C267.93005707 33.47269821 267.93677429 34.17098236 267.94369507 34.89042664 C267.96263119 37.19004514 267.96659738 39.48937096 267.96875 41.7890625 C267.97518234 43.39703488 267.98191103 45.00500611 267.98892212 46.61297607 C268.00088489 49.98208323 268.00460411 53.35108795 268.00341797 56.72021484 C268.00321515 61.01850408 268.0304831 65.3161294 268.06496239 69.61426163 C268.08730268 72.93618735 268.0912533 76.2579553 268.09019852 79.57994843 C268.09254507 81.16345247 268.10131488 82.74696149 268.11686325 84.33039093 C268.20224963 93.92653248 268.08638732 102.24825265 261.703125 109.98828125 C261.06117188 110.51550781 260.41921875 111.04273438 259.7578125 111.5859375 C259.12101562 112.13121094 258.48421875 112.67648437 257.828125 113.23828125 C252.08791982 116.9254949 246.45718288 116.92483066 239.87397766 116.86634827 C238.89655977 116.86579058 237.91914188 116.86523289 236.91210526 116.8646583 C233.63963468 116.8605919 230.36739241 116.84239738 227.0949707 116.82446289 C224.7474335 116.81902682 222.39989379 116.81459621 220.05235291 116.81109619 C214.99741855 116.80226302 209.94253847 116.78798207 204.88762856 116.77000618 C196.89034189 116.74330264 188.8931173 116.73904173 180.89579773 116.74009705 C179.53197442 116.74015145 178.1681511 116.74018907 176.80432779 116.74021012 C174.73759153 116.74025009 172.67085529 116.7402948 170.60411904 116.74038817 C162.81786463 116.74060071 155.03161373 116.7377476 147.24536133 116.73217773 C146.17815765 116.73142596 146.17815765 116.73142596 145.08939429 116.730659 C133.56729722 116.72170438 122.04539713 116.68682664 110.52338228 116.64413876 C98.67939748 116.60105375 86.83571721 116.59246233 74.99167317 116.61394876 C68.3473225 116.62489949 61.70371251 116.61821239 55.05947304 116.57280159 C48.80706586 116.53023643 42.55604461 116.52958167 36.30358315 116.56065369 C34.01350223 116.56459319 31.72333404 116.55322443 29.43342209 116.52512932 C15.2826342 115.99315256 15.2826342 115.99315256 3.03923035 122.01292419 C2.29348346 122.80077018 1.54773657 123.58861616 0.77939129 124.40033627 C-3.14375204 128.50902466 -8.19033716 130.49556464 -13.3671875 132.6484375 C-14.5015625 133.13570312 -15.6359375 133.62296875 -16.8046875 134.125 C-34.14807864 140.89619223 -55.29396012 139.75137306 -72.3671875 132.6484375 C-91.50194202 124.24449606 -105.10916395 108.54781292 -113.3671875 89.6484375 C-114.02267578 88.20984375 -114.02267578 88.20984375 -114.69140625 86.7421875 C-120.7348 70.96574907 -119.35038319 48.90234751 -112.6328125 33.5703125 C-108.0418673 23.67247634 -102.41684773 15.1090982 -94.3671875 7.6484375 C-93.84125 7.12894531 -93.3153125 6.60945313 -92.7734375 6.07421875 C-68.24899095 -17.04734632 -27.39870189 -19.49012051 0 0 Z " fill="#043C27" transform="translate(182.3671875,201.3515625)"/>
<path d="M0 0 C14.81046676 11.12093352 14.81046676 11.12093352 17.5625 16.625 C14.34913197 17.23129586 12.68245885 17.42855061 9.5625 16.625 C6.70247201 14.38905975 4.20407429 11.89736969 1.60546875 9.36328125 C-12.78686552 -4.15221903 -35.5165213 -9.97538339 -54.74707031 -9.86254883 C-77.50178665 -9.00886242 -99.56442911 1.69655231 -115.24609375 18.0234375 C-131.42416531 37.22949037 -138.30390032 59.8054164 -136.4375 84.625 C-135.84913773 89.4631856 -134.85291751 93.96434766 -133.4375 98.625 C-133.24945801 99.25180664 -133.06141602 99.87861328 -132.86767578 100.52441406 C-129.47850771 111.47652282 -124.2316236 120.43952368 -117.4375 129.625 C-116.633125 130.71941406 -116.633125 130.71941406 -115.8125 131.8359375 C-104.25117847 146.35327873 -83.59588178 156.84109999 -65.4375 159.625 C-61.4535853 159.8931581 -57.4916238 159.90514442 -53.5 159.875 C-52.47970703 159.88273438 -51.45941406 159.89046875 -50.40820312 159.8984375 C-28.62657515 159.84283666 -8.93656578 151.34389001 6.74609375 136.53125 C10.24027824 134.16625412 12.42796553 134.2561196 16.5625 134.625 C0.92003129 153.87726919 -20.96117576 163.94931326 -45.4375 166.625 C-62.29494501 167.98554182 -78.5676008 164.70392161 -93.4375 156.625 C-94.44039062 156.11195313 -95.44328125 155.59890625 -96.4765625 155.0703125 C-116.86266014 144.06076623 -131.92030218 124.31012517 -139.4375 102.625 C-144.6499051 85.04050883 -145.46713928 62.70636648 -138.4375 45.625 C-138.01339844 44.47515625 -137.58929688 43.3253125 -137.15234375 42.140625 C-127.79866644 18.27441771 -109.41983225 1.19711956 -86.4375 -9.375 C-57.63810598 -20.9909847 -25.66489715 -17.08242351 0 0 Z " fill="#0F412E" transform="translate(191.4375,188.375)"/>
<path d="M0 0 C15.14125417 -0.59248386 29.64192217 -0.0148467 43 8 C45 10 45 10 45.1953125 11.9453125 C45.13020833 13.96354167 45.06510417 15.98177083 45 18 C46.010625 17.34 47.02125 16.68 48.0625 16 C51.84248434 13.85419071 54.62047095 13.43228327 59 14 C63.6 16.2 63.6 16.2 65 19 C66.33787159 27.50141189 63.40853912 33.85129092 59 41 C54.74318918 46.72108973 54.74318918 46.72108973 49.875 47.5 C44.40285461 46.79391672 41.76797446 43.83648309 38 40 C37.814375 40.66 37.62875 41.32 37.4375 42 C34.99780145 47.0915448 30.96777138 51.03222862 27 55 C27.90363281 55.26554687 28.80726563 55.53109375 29.73828125 55.8046875 C30.91777344 56.15789062 32.09726563 56.51109375 33.3125 56.875 C35.07013672 57.39707031 35.07013672 57.39707031 36.86328125 57.9296875 C40 59 40 59 43 61 C42.70703125 62.8984375 42.70703125 62.8984375 42 65 C30.69679148 70.54497022 17.88450384 70.32328961 5.57348633 70.26074219 C3.07022806 70.25003306 0.56768955 70.26068715 -1.93554688 70.2734375 C-24.08560005 70.29424981 -24.08560005 70.29424981 -34 66 C-30.47983792 64.82661264 -28.93274079 65.25620007 -25.3125 65.9375 C-6.76117887 68.7693216 13.19120246 68.15511436 31 62 C28.40773472 58.82919796 28.40773472 58.82919796 24.62109375 57.75 C21.82453333 58.01673602 20.22675279 58.71707769 17.75 60 C9.54100344 63.40612096 0.07779267 63.48902053 -8.41015625 61 C-17.4380719 56.89957895 -25.34887201 49.81188146 -30 41 C-30 40.34 -30 39.68 -30 39 C-30.66 39 -31.32 39 -32 39 C-31.67 37.68 -31.34 36.36 -31 35 C-30.39865234 35.96099609 -30.39865234 35.96099609 -29.78515625 36.94140625 C-24.38806318 45.15330976 -17.74223661 52.28495045 -8 55 C3.04310367 56.3527802 11.26721845 54.17228639 20.08984375 47.39453125 C27.50190108 40.56635589 31.62849675 31.32121488 35 22 C34.35933594 22.20496094 33.71867187 22.40992188 33.05859375 22.62109375 C32.19363281 22.89050781 31.32867187 23.15992188 30.4375 23.4375 C29.16712891 23.83775391 29.16712891 23.83775391 27.87109375 24.24609375 C10.93436699 28.69342472 -12.86969848 28.35768139 -29 21 C-31.09110971 19.75432819 -33.02591701 18.43121017 -35 17 C-32.23883706 15.61941853 -31.08033642 16.42951523 -28.1875 17.375 C-20.39109233 19.89910173 -13.17712414 20.18625375 -5.03735352 20.18530273 C-2.96804564 20.18746804 -0.89929038 20.20558952 1.16992188 20.22460938 C12.54590527 20.27401341 23.0213086 19.83659308 33 14 C34.29633621 12.93354885 34.29633621 12.93354885 34.0625 10.4375 C34.041875 9.633125 34.02125 8.82875 34 8 C22.86268059 3.02323688 12.10341987 1.7312082 0 1 C0 0.67 0 0.34 0 0 Z " fill="#F1F7F6" transform="translate(130,239)"/>
<path d="M0 0 C26.46007557 -0.1168152 52.92011247 -0.20497947 79.38039398 -0.25906086 C91.6664441 -0.28483953 103.95233398 -0.31998392 116.23828125 -0.37719727 C126.94704499 -0.42704218 137.65569267 -0.45929346 148.36456919 -0.47044247 C154.03458937 -0.4769593 159.70427754 -0.49226924 165.37419128 -0.52865028 C170.7126657 -0.56262662 176.05067181 -0.57304948 181.38924408 -0.56553841 C183.34677934 -0.5669122 185.3043305 -0.57683475 187.26177216 -0.59602737 C189.93953101 -0.62099141 192.61553348 -0.61489346 195.29333496 -0.60127258 C196.06378568 -0.61583679 196.8342364 -0.630401 197.62803411 -0.64540654 C204.42914674 -0.55221605 209.06824773 2.32859638 214.0234375 6.84375 C214.46945312 7.3903125 214.91546875 7.936875 215.375 8.5 C216.06722656 9.31984375 216.06722656 9.31984375 216.7734375 10.15625 C219.36830713 14.05681836 220.25147798 17.62730514 220.30639648 22.27416992 C220.32238388 23.3026152 220.33837128 24.33106049 220.35484314 25.39067078 C220.36020584 26.49280411 220.36556854 27.59493744 220.37109375 28.73046875 C220.38012222 29.87606766 220.3891507 31.02166656 220.39845276 32.20198059 C220.41294854 34.62526846 220.42184032 37.04859542 220.42553711 39.47192383 C220.43740211 43.15709492 220.48657165 46.84057424 220.53710938 50.52539062 C220.54657786 52.88540854 220.55381086 55.24543669 220.55859375 57.60546875 C220.57812607 58.69748093 220.59765839 59.7894931 220.61778259 60.91459656 C220.57045555 69.04579084 218.83208849 75.82688686 213.21507263 81.94377136 C207.43165435 87.39001982 201.34784373 88.29915944 193.57180786 88.24050903 C192.32067634 88.24307231 192.32067634 88.24307231 191.04426944 88.24568737 C188.25745211 88.24897405 185.47087708 88.2379921 182.68408203 88.22705078 C180.68322251 88.22648649 178.68236258 88.22680358 176.6815033 88.22793579 C171.25430942 88.2285096 165.82720395 88.21675059 160.40003061 88.20278788 C154.72656102 88.19028534 149.0530894 88.18911039 143.37960815 88.18673706 C132.63812554 88.1805209 121.89668364 88.1641082 111.15521896 88.14403808 C98.92557212 88.12168335 86.69592333 88.11068672 74.46626115 88.10064721 C49.3108182 88.07974212 24.15541138 88.04456346 -1 88 C-0.505 87.01 -0.505 87.01 0 86 C1.03367958 85.99853344 2.06735916 85.99706688 3.13236237 85.99555588 C28.28768647 85.95895583 53.44287748 85.89949952 78.59809113 85.81609726 C90.76298747 85.77629325 102.927819 85.74390763 115.09277344 85.72900391 C125.69613493 85.71599451 136.29935388 85.68904788 146.9026351 85.64538693 C152.51665986 85.6227563 158.13050871 85.60709029 163.74458313 85.60811615 C169.03056767 85.6088618 174.3161631 85.59094875 179.60204697 85.55883217 C181.54018759 85.55032547 183.47837181 85.54858846 185.41652298 85.55419731 C188.06788913 85.5608471 190.71802078 85.54289359 193.3692627 85.51898193 C194.13193152 85.52674235 194.89460034 85.53450277 195.68038034 85.54249835 C201.73139062 85.44623382 207.01036818 83.75468223 211.53220415 79.58820891 C215.53323847 75.04216141 217.23906303 70.78413248 217.29052734 64.78588867 C217.30328705 63.77100876 217.31604675 62.75612885 217.32919312 61.710495 C217.33141876 60.62396133 217.33364441 59.53742767 217.3359375 58.41796875 C217.3425943 57.28982254 217.3492511 56.16167633 217.35610962 54.99934387 C217.36622451 52.61473213 217.370927 50.23009215 217.37060547 47.84545898 C217.37497183 44.21094695 217.41128709 40.57765615 217.44921875 36.94335938 C217.45508859 34.62239997 217.45905686 32.30143482 217.4609375 29.98046875 C217.48249405 28.3597773 217.48249405 28.3597773 217.50448608 26.7063446 C217.4591333 19.15644276 216.29767938 13.81113385 211.21875 7.94140625 C210.6515625 7.48636719 210.084375 7.03132812 209.5 6.5625 C208.9328125 6.08941406 208.365625 5.61632812 207.78125 5.12890625 C203.51750388 2.42666364 198.74059103 2.84795897 193.85028076 2.84178162 C193.02198549 2.83684364 192.19369021 2.83190566 191.34029508 2.82681805 C188.5611753 2.81144384 185.78207863 2.80308261 183.00292969 2.79467773 C181.01221513 2.78509915 179.02150262 2.77508908 177.03079224 2.76467896 C171.62212369 2.73762169 166.21344642 2.71661654 160.80474758 2.69667697 C155.15393415 2.67482252 149.50314766 2.64743118 143.85235596 2.62062073 C133.14979859 2.57068655 122.44722627 2.52575039 111.74463964 2.48259836 C99.56096403 2.4332322 87.37731545 2.37831176 75.19366598 2.32291877 C50.12913587 2.20908758 25.06457984 2.10225099 0 2 C0 1.34 0 0.68 0 0 Z " fill="#CADDD7" transform="translate(220,220)"/>
<path d="M0 0 C3.8053125 -0.12375 3.8053125 -0.12375 7.6875 -0.25 C8.87218872 -0.30462402 8.87218872 -0.30462402 10.08081055 -0.36035156 C13.80335904 -0.41871495 15.68408043 -0.18294427 18.98828125 1.73046875 C21.24467663 4.27603325 21.63569825 5.22093062 21.5 8.5625 C21.4896875 9.32691406 21.479375 10.09132812 21.46875 10.87890625 C20.8995363 13.45459823 20.07446695 14.40855845 18 16 C17.34 16 16.68 16 16 16 C16.34933594 16.69867188 16.69867188 17.39734375 17.05859375 18.1171875 C18.70572917 21.41145833 20.35286458 24.70572917 22 28 C16.8301455 28.70099722 16.8301455 28.70099722 14 28 C11.36841056 25.26214685 9 21.89044106 9 18 C8.34 18 7.68 18 7 18 C7 21.3 7 24.6 7 28 C4.69 28 2.38 28 0 28 C0 18.76 0 9.52 0 0 Z " fill="#EFF7F5" transform="translate(369,233)"/>
<path d="M0 0 C2.97 0 5.94 0 9 0 C16.76595745 19.53191489 16.76595745 19.53191489 19 28 C16.36 28 13.72 28 11 28 C10.505 25.525 10.505 25.525 10 23 C6.37 23 2.74 23 -1 23 C-1.33 24.65 -1.66 26.3 -2 28 C-4.31 28 -6.62 28 -9 28 C-8.34143875 21.87433503 -6.07751787 16.35389066 -3.9375 10.625 C-3.37192383 9.09166016 -3.37192383 9.09166016 -2.79492188 7.52734375 C-1.86799899 5.01643873 -0.93623553 2.50744426 0 0 Z " fill="#EFF7F5" transform="translate(247,233)"/>
<path d="M0 0 C2.97 0 5.94 0 9 0 C16.76595745 19.53191489 16.76595745 19.53191489 19 28 C16.36 28 13.72 28 11 28 C10.67 26.68 10.34 25.36 10 24 C6.37 23.67 2.74 23.34 -1 23 C-1.33 24.65 -1.66 26.3 -2 28 C-4.31 28 -6.62 28 -9 28 C-8.34143875 21.87433503 -6.07751787 16.35389066 -3.9375 10.625 C-3.37192383 9.09166016 -3.37192383 9.09166016 -2.79492188 7.52734375 C-1.86799899 5.01643873 -0.93623553 2.50744426 0 0 Z " fill="#EFF7F5" transform="translate(346,233)"/>
<path d="M0 0 C2.05078125 0.03255208 4.1015625 0.06510417 6.15234375 0.09765625 C16.15234375 23.3316988 16.15234375 23.3316988 16.15234375 28.09765625 C13.51234375 28.09765625 10.87234375 28.09765625 8.15234375 28.09765625 C7.82234375 26.77765625 7.49234375 25.45765625 7.15234375 24.09765625 C3.52234375 23.76765625 -0.10765625 23.43765625 -3.84765625 23.09765625 C-4.17765625 24.74765625 -4.50765625 26.39765625 -4.84765625 28.09765625 C-7.15765625 28.09765625 -9.46765625 28.09765625 -11.84765625 28.09765625 C-10.04446029 21.65993032 -7.93560809 15.34134147 -5.72265625 9.03515625 C-5.45694824 8.27275635 -5.19124023 7.51035645 -4.91748047 6.72485352 C-2.58629789 0.13669651 -2.58629789 0.13669651 0 0 Z " fill="#F1F8F6" transform="translate(417.84765625,232.90234375)"/>
<path d="M0 0 C3.62492967 -0.05891984 7.24973334 -0.0939009 10.875 -0.125 C11.88820312 -0.14175781 12.90140625 -0.15851563 13.9453125 -0.17578125 C22.29862301 -0.22932811 31.01685997 -0.12096936 38 5 C37.73828125 6.89453125 37.73828125 6.89453125 37 9 C35.29296875 10.01171875 35.29296875 10.01171875 33.1875 10.6875 C32.50042969 10.91824219 31.81335938 11.14898437 31.10546875 11.38671875 C30.41066406 11.58910156 29.71585938 11.79148437 29 12 C28.41323486 12.17418457 27.82646973 12.34836914 27.22192383 12.52783203 C22.41797846 13.54869022 17.39066407 13.18476473 12.5 13.1875 C11.37851563 13.19974609 10.25703125 13.21199219 9.1015625 13.22460938 C-10.36779022 13.25833227 -10.36779022 13.25833227 -14.83398438 9.42651367 C-15.21876953 8.95576416 -15.60355469 8.48501465 -16 8 C-15.07719238 8.00785522 -15.07719238 8.00785522 -14.13574219 8.01586914 C-11.34050524 8.03669371 -8.54528464 8.04967759 -5.75 8.0625 C-4.78191406 8.07087891 -3.81382813 8.07925781 -2.81640625 8.08789062 C-1.88183594 8.09111328 -0.94726562 8.09433594 0.015625 8.09765625 C1.30388184 8.10551147 1.30388184 8.10551147 2.61816406 8.11352539 C4.88670744 8.00539986 6.82631715 7.63582423 9 7 C9 6.01 9 5.02 9 4 C6.03 3.01 3.06 2.02 0 1 C0 0.67 0 0.34 0 0 Z " fill="#F6FBFA" transform="translate(121,245)"/>
<path d="M0 0 C3.62977565 1.9510836 6.44167275 4.19024961 7.6796875 8.203125 C7.78539062 8.79609375 7.89109375 9.3890625 8 10 C5.36 10 2.72 10 0 10 C-0.33 9.01 -0.66 8.02 -1 7 C-6.41461195 6.39079123 -6.41461195 6.39079123 -11 8.625 C-12.28292178 11.67193922 -12.40995912 13.72032701 -12 17 C-11.02896212 19.46186579 -11.02896212 19.46186579 -9 21 C-6 21.58333333 -6 21.58333333 -3 21 C-2.54625 20.505 -2.0925 20.01 -1.625 19.5 C0.4534696 17.58141268 1.41201878 17.79791779 4.1875 17.8125 C6.0746875 17.9053125 6.0746875 17.9053125 8 18 C6.68954637 21.93136089 5.16791954 24.31206827 2 27 C-2.38331321 28.4611044 -6.42847447 28.73421471 -11 28 C-14.79881388 25.93422165 -17.25587229 23.26178177 -19.4375 19.5625 C-20.87135509 13.0304935 -19.99351386 9.21203258 -16.484375 3.69921875 C-12.24414446 -1.15472936 -5.96905678 -0.97660167 0 0 Z " fill="#EEF6F4" transform="translate(227,233)"/>
<path d="M0 0 C5.61 0 11.22 0 17 0 C17 1.98 17 3.96 17 6 C13.7 6 10.4 6 7 6 C7 7.65 7 9.3 7 11 C9.97 11 12.94 11 16 11 C16 12.65 16 14.3 16 16 C13.03 16 10.06 16 7 16 C7 17.98 7 19.96 7 22 C10.3 22 13.6 22 17 22 C17 23.98 17 25.96 17 28 C11.39 28 5.78 28 0 28 C0 18.76 0 9.52 0 0 Z " fill="#EFF7F5" transform="translate(292,233)"/>
<path d="M0 0 C5.94 0 11.88 0 18 0 C18 1.98 18 3.96 18 6 C14.37 6 10.74 6 7 6 C7 7.65 7 9.3 7 11 C9.64 11 12.28 11 15 11 C15 12.98 15 14.96 15 17 C12.36 17 9.72 17 7 17 C7 20.63 7 24.26 7 28 C4.69 28 2.38 28 0 28 C0 18.76 0 9.52 0 0 Z " fill="#EEF6F4" transform="translate(270,233)"/>
<path d="M0 0 C2.13794463 0.8764001 4.00117854 1.83402081 6 3 C5.70703125 4.8984375 5.70703125 4.8984375 5 7 C-6.30320852 12.54497022 -19.11549616 12.32328961 -31.42651367 12.26074219 C-33.92977194 12.25003306 -36.43231045 12.26068715 -38.93554688 12.2734375 C-61.08560005 12.29424981 -61.08560005 12.29424981 -71 8 C-67.47983792 6.82661264 -65.93274079 7.25620007 -62.3125 7.9375 C-43.76117887 10.7693216 -23.80879754 10.15511436 -6 4 C-8.48952921 1.33264727 -10.63408134 -0.55746343 -14 -2 C-9.89498206 -4.05250897 -4.21044184 -1.26642196 0 0 Z " fill="#E1EFEB" transform="translate(167,297)"/>
<path d="M0 0 C6.93 0 13.86 0 21 0 C21 1.98 21 3.96 21 6 C18.69 6 16.38 6 14 6 C14 13.26 14 20.52 14 28 C11.69 28 9.38 28 7 28 C7 20.41 7 12.82 7 5 C4.69 5 2.38 5 0 5 C0 3.35 0 1.7 0 0 Z " fill="#F2FAF8" transform="translate(313,233)"/>
<path d="M0 0 C2 2 2 2 2.3125 5.75 C2.18895323 10.61244793 0.48361974 13.97688217 -2.375 17.875 C-4 19 -4 19 -6.375 19.5625 C-9.55070592 18.88199159 -11.21760475 17.57354122 -13.1796875 14.98828125 C-14.5704185 11.61741421 -13.76578021 8.73792247 -13.00390625 5.26953125 C-10.33417675 -0.76592726 -5.80041008 -0.46777501 0 0 Z " fill="#083D29" transform="translate(186,260)"/>
<path d="M0 0 C2.31 0 4.62 0 7 0 C7 9.24 7 18.48 7 28 C4.69 28 2.38 28 0 28 C0 18.76 0 9.52 0 0 Z " fill="#F2FAF8" transform="translate(395,233)"/>
<path d="M0 0 C6.04392525 0.44769817 14.50038886 1.50038886 19 6 C19.375 8.3125 19.375 8.3125 19 11 C13.24168782 17.3155682 4.40108841 18.41513805 -3.71484375 18.94921875 C-9.50407075 19.0387074 -15.24118713 18.55373201 -21 18 C-21 17.67 -21 17.34 -21 17 C-20.12432373 16.97812622 -20.12432373 16.97812622 -19.23095703 16.95581055 C-16.52838041 16.88030915 -13.82690536 16.78399662 -11.125 16.6875 C-10.2071875 16.66494141 -9.289375 16.64238281 -8.34375 16.61914062 C-1.21764145 16.34312938 5.56239687 15.21880157 12 12 C12 11.01 12 10.02 12 9 C7.25645564 6.77343836 3.27749285 5.53851968 -2 5 C-1.34 3.35 -0.68 1.7 0 0 Z " fill="#114230" transform="translate(146,241)"/>
<path d="M0 0 C0 0.99 0 1.98 0 3 C-1.65 3 -3.3 3 -5 3 C-5 3.99 -5 4.98 -5 6 C-3.68 6 -2.36 6 -1 6 C-1 6.66 -1 7.32 -1 8 C-2.65 8 -4.3 8 -6 8 C-6 9.65 -6 11.3 -6 13 C-4.35 13 -2.7 13 -1 13 C-1 13.33 -1 13.66 -1 14 C-3.31 14 -5.62 14 -8 14 C-8.20625 13.195625 -8.4125 12.39125 -8.625 11.5625 C-9.07875 10.716875 -9.5325 9.87125 -10 9 C-13.05272465 8.10169161 -13.05272465 8.10169161 -16 8 C-16 9.98 -16 11.96 -16 14 C-16.66 14 -17.32 14 -18 14 C-18 9.71 -18 5.42 -18 1 C-11.94563254 0.3272925 -6.08907636 -0.11276067 0 0 Z " fill="#1C4A38" transform="translate(264,281)"/>
<path d="M0 0 C1.9375 1.125 1.9375 1.125 3 3 C3.54068562 6.63031776 3.46379841 8.32214079 1.375 11.375 C-1.67785921 13.46379841 -3.36968224 13.54068562 -7 13 C-8.875 11.9375 -8.875 11.9375 -10 10 C-10.36528977 6.5906288 -10.6140629 4.11976176 -8.9375 1.0625 C-5.88023824 -0.6140629 -3.4093712 -0.36528977 0 0 Z " fill="#0E3E2C" transform="translate(231,282)"/>
<path d="M0 0 C0.66 0 1.32 0 2 0 C2.33 1.32 2.66 2.64 3 4 C3.99 2.68 4.98 1.36 6 0 C6.99 0.33 7.98 0.66 9 1 C8.34 1.66 7.68 2.32 7 3 C9.8431994 3 12.23132491 2.58287897 15 2 C15.33 2 15.66 2 16 2 C16 4.31 16 6.62 16 9 C15.01 9.33 14.02 9.66 13 10 C13 10.66 13 11.32 13 12 C10.25 12.75 10.25 12.75 7 13 C4.625 11.0625 4.625 11.0625 3 9 C2.67 10.32 2.34 11.64 2 13 C1.34 13 0.68 13 0 13 C0 8.71 0 4.42 0 0 Z " fill="#0F402D" transform="translate(339,282)"/>
<path d="M0 0 C2.31 0 4.62 0 7 0 C7.66 1.32 8.32 2.64 9 4 C9.66 4 10.32 4 11 4 C11 2.68 11 1.36 11 0 C11.66 0 12.32 0 13 0 C13 4.29 13 8.58 13 13 C12.34 13 11.68 13 11 13 C10.67 12.34 10.34 11.68 10 11 C9.67 11.66 9.34 12.32 9 13 C8.01 13 7.02 13 6 13 C5.71125 12.360625 5.4225 11.72125 5.125 11.0625 C4.17176549 8.84793921 4.17176549 8.84793921 2 8 C2 9.65 2 11.3 2 13 C1.34 13 0.68 13 0 13 C0 8.71 0 4.42 0 0 Z " fill="#9DB9B0" transform="translate(309,282)"/>
<path d="M0 0 C7.32215357 -0.36010591 7.32215357 -0.36010591 10 1.0625 C11.58433618 4.13215135 11.36248449 6.61681143 11 10 C10 11.9375 10 11.9375 8 13 C5.28117977 13.23595284 2.74042978 13.13477523 0 13 C0 8.71 0 4.42 0 0 Z " fill="#CCE7DD" transform="translate(295,282)"/>
<path d="M0 0 C0.66 1.32 1.32 2.64 2 4 C1.34 4 0.68 4 0 4 C0 5.65 0 7.3 0 9 C0.66 9 1.32 9 2 9 C1 12 1 12 -1 13 C-6.21653972 13.44396083 -6.21653972 13.44396083 -8.875 11.9375 C-10.64273274 8.8930714 -10.36823916 6.4368988 -10 3 C-7.7672032 -1.07157064 -4.21152194 -0.23838803 0 0 Z " fill="#0D402C" transform="translate(412,282)"/>
<path d="M0 0 C1.9375 2 1.9375 2 3 4 C1.68 4.33 0.36 4.66 -1 5 C-1.33 6.32 -1.66 7.64 -2 9 C-0.35 9 1.3 9 3 9 C1.875 11 1.875 11 0 13 C-3.64607289 13.62060815 -5.30628876 13.47464453 -8.375 11.375 C-10.46379841 8.32214079 -10.54068562 6.63031776 -10 3 C-7.72375139 -1.01690931 -4.20725277 -0.5259066 0 0 Z " fill="#083D28" transform="translate(216,282)"/>
<path d="M0 0 C6.35590883 2.06936566 10.95061036 6.46101229 14.6875 11.875 C16.38403673 15.49730173 16.93358624 18.31993299 16.91455078 22.30786133 C16.91439972 23.36858353 16.91424866 24.42930573 16.91409302 25.52217102 C16.90377045 26.6556749 16.89344788 27.78917877 16.8828125 28.95703125 C16.8799826 30.12634689 16.87715271 31.29566254 16.87423706 32.50041199 C16.86305562 36.22954608 16.83795434 39.95843868 16.8125 43.6875 C16.80246759 46.21809549 16.79334219 48.74869474 16.78515625 51.27929688 C16.76312292 57.47794677 16.72966534 63.67645613 16.6875 69.875 C16.3575 69.875 16.0275 69.875 15.6875 69.875 C15.6875 52.715 15.6875 35.555 15.6875 17.875 C15.0275 17.875 14.3675 17.875 13.6875 17.875 C13.171875 16.67875 12.65625 15.4825 12.125 14.25 C9.49519756 9.04575938 6.03893053 5.09583634 0.45703125 3.0625 C-1.44563519 2.57757263 -3.37854645 2.2142901 -5.3125 1.875 C-2.3125 -0.125 -2.3125 -0.125 0 0 Z " fill="#B7CDC4" transform="translate(423.3125,220.125)"/>
<path d="M0 0 C0.66 0 1.32 0 2 0 C1.896875 0.99 1.79375 1.98 1.6875 3 C1.65298318 6.42406819 2.56324484 8.20670805 4.5 11 C7.0765321 14.76232245 7.74062361 17.37110246 7 22 C6.01 22.66 5.02 23.32 4 24 C3.87625 22.4221875 3.87625 22.4221875 3.75 20.8125 C3.31725238 16.9875951 3.31725238 16.9875951 1 14.625 C-1.72249126 11.05173022 -2.25075423 7.46342532 -2 3 C-1.34 2.01 -0.68 1.02 0 0 Z " fill="#DFEDE9" transform="translate(109,207)"/>
<path d="M0 0 C0.66 0.33 1.32 0.66 2 1 C1.773125 1.72445312 1.54625 2.44890625 1.3125 3.1953125 C0.90752019 6.83000627 1.90219653 7.94369426 4 10.875 C7.49762222 16.29145663 7.49762222 16.29145663 7 20.0625 C6 23 6 23 4 24 C3.773125 22.824375 3.54625 21.64875 3.3125 20.4375 C2.52163803 17.13448823 1.45713944 15.05872598 -0.6875 12.4375 C-2.93388827 9.55683739 -3.00238803 9.14566965 -2.9375 5.1875 C-2 2 -2 2 0 0 Z " fill="#E2F0EB" transform="translate(146,207)"/>
<path d="M0 0 C0.66 0.33 1.32 0.66 2 1 C1.896875 1.99 1.79375 2.98 1.6875 4 C1.64573046 7.45294902 2.58544448 9.20372257 4.5625 12 C6.7572989 15.18059841 7.00279638 15.82382799 6.9375 19.9375 C6.628125 20.948125 6.31875 21.95875 6 23 C5.34 23.33 4.68 23.66 4 24 C3.62875 22.205625 3.62875 22.205625 3.25 20.375 C2.48691687 17.22313491 1.81471734 15.73842447 -0.125 13 C-2.66041173 8.94334124 -2.47188982 6.71889824 -2 2 C-1.34 1.34 -0.68 0.68 0 0 Z " fill="#E0EFEB" transform="translate(127,200)"/>
<path d="M0 0 C0.99 0 1.98 0 3 0 C4.32 4.29 5.64 8.58 7 13 C6.34 13 5.68 13 5 13 C4.67 12.34 4.34 11.68 4 11 C0.97065509 10.34227572 0.97065509 10.34227572 -2 10 C-2 10.99 -2 11.98 -2 13 C-2.99 12.67 -3.98 12.34 -5 12 C-3.35 8.04 -1.7 4.08 0 0 Z " fill="#9EB9B0" transform="translate(393,282)"/>
<path d="M0 0 C0.99 0 1.98 0 3 0 C4.38671875 1.75 4.38671875 1.75 5.6875 4 C6.12449219 4.7425 6.56148438 5.485 7.01171875 6.25 C7.33785156 6.8275 7.66398437 7.405 8 8 C8.33 5.36 8.66 2.72 9 0 C9.66 0 10.32 0 11 0 C11 4.29 11 8.58 11 13 C6.01222852 10.50611426 5.48741151 8.79715076 3 4 C2.67 6.97 2.34 9.94 2 13 C1.34 13 0.68 13 0 13 C0 8.71 0 4.42 0 0 Z " fill="#C3DFD8" transform="translate(325,282)"/>
<path d="M0 0 C0.99 0 1.98 0 3 0 C4.38671875 1.75 4.38671875 1.75 5.6875 4 C6.12449219 4.7425 6.56148438 5.485 7.01171875 6.25 C7.33785156 6.8275 7.66398437 7.405 8 8 C8.33 5.36 8.66 2.72 9 0 C9.66 0 10.32 0 11 0 C11 4.29 11 8.58 11 13 C6.01222852 10.50611426 5.48741151 8.79715076 3 4 C2.67 6.97 2.34 9.94 2 13 C1.34 13 0.68 13 0 13 C0 8.71 0 4.42 0 0 Z " fill="#D4E9E0" transform="translate(375,282)"/>
<path d="M0 0 C1.9375 1.125 1.9375 1.125 3 3 C3.54068562 6.63031776 3.46379841 8.32214079 1.375 11.375 C-1.67785921 13.46379841 -3.36968224 13.54068562 -7 13 C-8.875 11.9375 -8.875 11.9375 -10 10 C-10.36528977 6.5906288 -10.6140629 4.11976176 -8.9375 1.0625 C-5.88023824 -0.6140629 -3.4093712 -0.36528977 0 0 Z M-8 3 C-8.25660094 6.07921132 -8.39431504 8.21136993 -7 11 C-4.08347826 11.16681109 -4.08347826 11.16681109 -1 11 C-0.34 10.34 0.32 9.68 1 9 C0.67673447 5.40320934 0.67673447 5.40320934 0 2 C-4.17810069 0.81068813 -4.17810069 0.81068813 -8 3 Z " fill="#CDE9DF" transform="translate(231,282)"/>
<path d="M0 0 C5.875 0.875 5.875 0.875 7 2 C7.125 5.5 7.125 5.5 7 9 C6 10 6 10 2.9375 10.0625 C1.968125 10.041875 0.99875 10.02125 0 10 C0 6.7 0 3.4 0 0 Z " fill="#0F3F2C" transform="translate(297,283)"/>
<path d="M0 0 C2.64 0 5.28 0 8 0 C8 0.99 8 1.98 8 3 C6.35 3 4.7 3 3 3 C3 3.99 3 4.98 3 6 C4.32 6 5.64 6 7 6 C7 6.66 7 7.32 7 8 C5.35 8 3.7 8 2 8 C2 9.65 2 11.3 2 13 C3.65 13 5.3 13 7 13 C7 13.33 7 13.66 7 14 C4.69 14 2.38 14 0 14 C0 9.38 0 4.76 0 0 Z " fill="#A1BEB5" transform="translate(256,281)"/>
<path d="M0 0 C0.495 1.485 0.495 1.485 1 3 C1.66 3.33 2.32 3.66 3 4 C-9.50839877 9.29390893 -20.61341048 9.28717207 -34 8 C-34 7.67 -34 7.34 -34 7 C-33.41621582 6.98541748 -32.83243164 6.97083496 -32.23095703 6.95581055 C-29.52838041 6.88030915 -26.82690536 6.78399662 -24.125 6.6875 C-22.74828125 6.65366211 -22.74828125 6.65366211 -21.34375 6.61914062 C-10.54521685 6.21522847 -10.54521685 6.21522847 -1.21923828 1.3972168 C-0.81688965 0.93613525 -0.41454102 0.47505371 0 0 Z " fill="#2E5246" transform="translate(159,251)"/>
<path d="M0 0 C1.9375 2 1.9375 2 3 4 C2.01 4 1.02 4 0 4 C0 3.34 0 2.68 0 2 C-2.31 2 -4.62 2 -7 2 C-7 4.31 -7 6.62 -7 9 C-4.69 9.66 -2.38 10.32 0 11 C0 10.34 0 9.68 0 9 C0.99 9.33 1.98 9.66 3 10 C1.12785559 12.49619254 0.2104846 12.96865123 -2.9375 13.4375 C-6 13 -6 13 -8.375 11.375 C-10.46379841 8.32214079 -10.54068562 6.63031776 -10 3 C-7.72375139 -1.01690931 -4.20725277 -0.5259066 0 0 Z " fill="#BBD9CF" transform="translate(216,282)"/>
<path d="M0 0 C2.64 0 5.28 0 8 0 C7.67 2.31 7.34 4.62 7 7 C5.02 7 3.04 7 1 7 C1 8.98 1 10.96 1 13 C0.67 13 0.34 13 0 13 C0 8.71 0 4.42 0 0 Z " fill="#7A9C91" transform="translate(237,282)"/>
<path d="M0 0 C0.66 0 1.32 0 2 0 C2 4.29 2 8.58 2 13 C1.34 13 0.68 13 0 13 C-0.33 12.34 -0.66 11.68 -1 11 C-1.99 11 -2.98 11 -4 11 C-5.0326802 8.21176345 -5.04509293 7.1322726 -4.0625 4.25 C-3.711875 3.5075 -3.36125 2.765 -3 2 C-2.67 2.66 -2.34 3.32 -2 4 C-1.34 4 -0.68 4 0 4 C0 2.68 0 1.36 0 0 Z " fill="#688B7F" transform="translate(320,282)"/>
<path d="M0 0 C0.66 1.32 1.32 2.64 2 4 C1.443125 3.649375 0.88625 3.29875 0.3125 2.9375 C-2.53886783 1.78154007 -4.08517222 2.19032562 -7 3 C-7 5.31 -7 7.62 -7 10 C-3.65747276 10.07427838 -1.1964086 10.06546953 2 9 C1 12 1 12 -1 13 C-6.21653972 13.44396083 -6.21653972 13.44396083 -8.875 11.9375 C-10.64273274 8.8930714 -10.36823916 6.4368988 -10 3 C-7.7672032 -1.07157064 -4.21152194 -0.23838803 0 0 Z " fill="#BBD9CE" transform="translate(412,282)"/>
<path d="M0 0 C1.010625 0.0825 2.02125 0.165 3.0625 0.25 C3.7225 1.24 4.3825 2.23 5.0625 3.25 C4.0725 3.25 3.0825 3.25 2.0625 3.25 C2.0625 2.59 2.0625 1.93 2.0625 1.25 C1.0725 1.58 0.0825 1.91 -0.9375 2.25 C-1.2675 3.24 -1.5975 4.23 -1.9375 5.25 C-1.15375 5.37375 -0.37 5.4975 0.4375 5.625 C3.0625 6.25 3.0625 6.25 5.0625 8.25 C4.52678571 11.78571429 4.52678571 11.78571429 3.0625 13.25 C0.72305264 12.96269945 -1.6114143 12.63063221 -3.9375 12.25 C-3.9375 11.26 -3.9375 10.27 -3.9375 9.25 C-3.2775 9.25 -2.6175 9.25 -1.9375 9.25 C-1.9375 9.91 -1.9375 10.57 -1.9375 11.25 C-0.2875 11.25 1.3625 11.25 3.0625 11.25 C3.0625 10.26 3.0625 9.27 3.0625 8.25 C1.0825 7.59 -0.8975 6.93 -2.9375 6.25 C-3.31968767 4.59385343 -3.65145102 2.92542976 -3.9375 1.25 C-2.9375 0.25 -2.9375 0.25 0 0 Z " fill="#C4E2D8" transform="translate(367.9375,281.75)"/>
<path d="M0 0 C0.66 0 1.32 0 2 0 C2.33 1.32 2.66 2.64 3 4 C3.99 2.68 4.98 1.36 6 0 C6.99 0.33 7.98 0.66 9 1 C8.319375 1.5775 7.63875 2.155 6.9375 2.75 C4.76692885 4.75808047 4.76692885 4.75808047 5.0625 7 C6.12170852 9.25964485 7.41857514 11.07478713 9 13 C6.53199953 11.84826645 4.95216435 10.95216435 3 9 C2.67 10.32 2.34 11.64 2 13 C1.34 13 0.68 13 0 13 C0 8.71 0 4.42 0 0 Z " fill="#D1ECE3" transform="translate(417,282)"/>
<path d="M0 0 C0.66 0 1.32 0 2 0 C2.33 1.32 2.66 2.64 3 4 C3.99 2.68 4.98 1.36 6 0 C6.99 0.33 7.98 0.66 9 1 C8.319375 1.5775 7.63875 2.155 6.9375 2.75 C4.76692885 4.75808047 4.76692885 4.75808047 5.0625 7 C6.12170852 9.25964485 7.41857514 11.07478713 9 13 C6.53199953 11.84826645 4.95216435 10.95216435 3 9 C2.67 10.32 2.34 11.64 2 13 C1.34 13 0.68 13 0 13 C0 8.71 0 4.42 0 0 Z " fill="#D2EDE4" transform="translate(339,282)"/>
<path d="M0 0 C22.29388729 -0.63562297 22.29388729 -0.63562297 32 3 C32.495 3.99 32.495 3.99 33 5 C28.19000326 4.52688557 23.492726 3.93322362 18.75 3 C12.53586158 1.81887298 6.30701053 1.38102766 0 1 C0 0.67 0 0.34 0 0 Z " fill="#9FC2B5" transform="translate(130,239)"/>
<path d="M0 0 C0 3 0 3 -1.25 4.5625 C-3 6 -3 6 -5.0625 6.75 C-8.14073297 8.73595675 -8.23792762 11.57067428 -9 15 C-9.33 14.34 -9.66 13.68 -10 13 C-11.98 13.33 -13.96 13.66 -16 14 C-11.65208747 8.00287927 -6.05706051 4.17947783 0 0 Z " fill="#184534" transform="translate(90,187)"/>
<path d="M0 0 C0.66 0 1.32 0 2 0 C1.3649757 5.39770652 -0.86957746 9.21174858 -5.04296875 12.71484375 C-7.00140899 14.18800676 -8.97785732 15.61591205 -11 17 C-12.32 16.34 -13.64 15.68 -15 15 C-14.22076172 14.67128906 -14.22076172 14.67128906 -13.42578125 14.3359375 C-7.19690704 11.50358435 -3.59793345 8.50023517 -0.6875 2.125 C-0.460625 1.42375 -0.23375 0.7225 0 0 Z " fill="#CCE4DC" transform="translate(437,290)"/>
<path d="M0 0 C0.99 0 1.98 0 3 0 C3 0.66 3 1.32 3 2 C3.639375 1.814375 4.27875 1.62875 4.9375 1.4375 C5.9584375 1.2209375 5.9584375 1.2209375 7 1 C8 2 8 2 8.09765625 3.84765625 C8.04882812 6.92382812 8.04882812 6.92382812 8 10 C7.01 10 6.02 10 5 10 C4.938125 9.38125 4.87625 8.7625 4.8125 8.125 C4.171081 5.72238859 4.171081 5.72238859 1.4375 4.75 C0.633125 4.5025 -0.17125 4.255 -1 4 C-0.67 2.68 -0.34 1.36 0 0 Z " fill="#144130" transform="translate(367,283)"/>
<path d="M0 0 C6.27 0.33 12.54 0.66 19 1 C18.34 2.32 17.68 3.64 17 5 C14.72735496 4.74481529 12.45687295 4.47030939 10.1875 4.1875 C8.92292969 4.03667969 7.65835938 3.88585937 6.35546875 3.73046875 C3 3 3 3 0 0 Z " fill="#B5CDC5" transform="translate(105,253)"/>
<path d="M0 0 C2.31 0 4.62 0 7 0 C7 0.33 7 0.66 7 1 C5.35 1 3.7 1 2 1 C2 2.65 2 4.3 2 6 C3.65 6 5.3 6 7 6 C7 6.33 7 6.66 7 7 C5.35 7 3.7 7 2 7 C2 8.32 2 9.64 2 11 C3.65 11 5.3 11 7 11 C7 11.66 7 12.32 7 13 C4.69 13 2.38 13 0 13 C0 8.71 0 4.42 0 0 Z " fill="#D2EAE2" transform="translate(266,282)"/>
<path d="M0 0 C1.99954746 -0.04254356 4.00041636 -0.04080783 6 0 C7 1 7 1 7.0625 3.5625 C7.041875 4.366875 7.02125 5.17125 7 6 C4.69 6.33 2.38 6.66 0 7 C0 4.69 0 2.38 0 0 Z " fill="#184435" transform="translate(376,239)"/>
<path d="M0 0 C1.98 0 3.96 0 6 0 C6.33 0.99 6.66 1.98 7 3 C6.01 4.485 6.01 4.485 5 6 C2.375 6.1875 2.375 6.1875 0 6 C0 6.99 0 7.98 0 9 C1.65 9 3.3 9 5 9 C4.67 9.66 4.34 10.32 4 11 C2.35 10.67 0.7 10.34 -1 10 C-1 8.35 -1 6.7 -1 5 C0.65 5 2.3 5 4 5 C4 4.34 4 3.68 4 3 C2.68 3 1.36 3 0 3 C0 2.01 0 1.02 0 0 Z " fill="#224F3E" transform="translate(259,284)"/>
<path d="M0 0 C2.64 0 5.28 0 8 0 C8 0.33 8 0.66 8 1 C6.02 1 4.04 1 2 1 C2 2.65 2 4.3 2 6 C3.65 6 5.3 6 7 6 C7 6.33 7 6.66 7 7 C5.35 7 3.7 7 2 7 C2 8.98 2 10.96 2 13 C1.34 13 0.68 13 0 13 C0 8.71 0 4.42 0 0 Z " fill="#CFE2DC" transform="translate(246,282)"/>
<path d="M0 0 C0.66 0 1.32 0 2 0 C3.65 3.3 5.3 6.6 7 10 C4.69 9.67 2.38 9.34 0 9 C0 6.03 0 3.06 0 0 Z " fill="#103E2D" transform="translate(376,251)"/>
<path d="M0 0 C0.66 0.33 1.32 0.66 2 1 C1.79375 1.721875 1.5875 2.44375 1.375 3.1875 C0.94047789 6.44641585 1.58319331 8.08304504 3 11 C1.68 11.33 0.36 11.66 -1 12 C-3 9 -3 9 -2.75 5.4375 C-2 2 -2 2 0 0 Z " fill="#D8EAE5" transform="translate(146,207)"/>
<path d="M0 0 C2.95183101 2.95183101 3.08663988 5.95511947 4 10 C2.02 10 0.04 10 -2 10 C-1.54177532 6.53058454 -1.10868317 3.32604951 0 0 Z " fill="#335549" transform="translate(350,241)"/>
<path d="M0 0 C2.95183101 2.95183101 3.08663988 5.95511947 4 10 C2.02 10 0.04 10 -2 10 C-1.54177532 6.53058454 -1.10868317 3.32604951 0 0 Z " fill="#274D40" transform="translate(251,241)"/>
<path d="M0 0 C0.66 0 1.32 0 2 0 C2.66 2.97 3.32 5.94 4 9 C2.02 9 0.04 9 -2 9 C-1.34 6.03 -0.68 3.06 0 0 Z " fill="#234B3D" transform="translate(419,242)"/>
<path d="M0 0 C0.99 0 1.98 0 3 0 C3.66 1.65 4.32 3.3 5 5 C4.34 4.67 3.68 4.34 3 4 C2.67 6.97 2.34 9.94 2 13 C1.34 13 0.68 13 0 13 C0 8.71 0 4.42 0 0 Z " fill="#C2DED5" transform="translate(375,282)"/>
<path d="M0 0 C0.515625 0.66 1.03125 1.32 1.5625 2 C4.61208585 5.75333644 7.7986681 9.37602035 11 13 C10.34 13.66 9.68 14.32 9 15 C8.01216806 13.92456217 7.03506057 12.83926783 6.0625 11.75 C5.51722656 11.14671875 4.97195312 10.5434375 4.41015625 9.921875 C2.93787201 7.91532695 2.42470811 6.42997551 2 4 C1.34 4 0.68 4 0 4 C0 2.68 0 1.36 0 0 Z " fill="#BFDDD3" transform="translate(98,274)"/>
<path d="M0 0 C0 1.32 0 2.64 0 4 C-2.95664519 5.4783226 -5.74229737 5.06032783 -9 5 C-4.5 0 -4.5 0 0 0 Z " fill="#013A24" transform="translate(171,345)"/>
<path d="M0 0 C0.33 0.99 0.66 1.98 1 3 C1.66 3.33 2.32 3.66 3 4 C1.21189234 4.69670416 -0.58062052 5.38211189 -2.375 6.0625 C-3.37273437 6.44535156 -4.37046875 6.82820313 -5.3984375 7.22265625 C-8 8 -8 8 -10 7 C-9 5 -9 5 -7.1875 4.21875 C-5 3.5 -5 3.5 -2.8125 2.78125 C-0.80487204 2.14670555 -0.80487204 2.14670555 0 0 Z " fill="#385B4F" transform="translate(159,251)"/>
<path d="M0 0 C1.16959987 0.97566112 2.33561177 1.955625 3.5 2.9375 C4.1496875 3.48277344 4.799375 4.02804688 5.46875 4.58984375 C6.22671875 5.28787109 6.22671875 5.28787109 7 6 C7 6.33 7 6.66 7 7 C4.36 7 1.72 7 -1 7 C-1.33 6.34 -1.66 5.68 -2 5 C-1.34 4.67 -0.68 4.34 0 4 C0 2.68 0 1.36 0 0 Z " fill="#1D4737" transform="translate(202,198)"/>
<path d="M0 0 C0.99 0.33 1.98 0.66 3 1 C3 3.64 3 6.28 3 9 C1.68 9.33 0.36 9.66 -1 10 C-2.46726798 6.18510326 -1.43336419 3.70988378 0 0 Z " fill="#1E4C3A" transform="translate(400,284)"/>
<path d="M0 0 C0.66 0 1.32 0 2 0 C2 4.29 2 8.58 2 13 C1.01 12.67 0.02 12.34 -1 12 C-0.67 8.04 -0.34 4.08 0 0 Z " fill="#D8ECE6" transform="translate(334,282)"/>
<path d="M0 0 C2.31 0 4.62 0 7 0 C6.360625 0.309375 5.72125 0.61875 5.0625 0.9375 C3.06389179 1.8345163 3.06389179 1.8345163 2 3 C1.76298761 5.85877909 1.57780818 8.69883297 1.4375 11.5625 C1.39431641 12.36880859 1.35113281 13.17511719 1.30664062 14.00585938 C1.20024738 16.00368805 1.09959112 18.0018207 1 20 C0.67 20 0.34 20 0 20 C0 13.4 0 6.8 0 0 Z " fill="#0D3326" transform="translate(327,239)"/>
<path d="M0 0 C2.50816459 2.50816459 3.61410019 3.90837736 5 7 C4.34 7 3.68 7 3 7 C2.67 7.99 2.34 8.98 2 10 C1.34 10 0.68 10 0 10 C0 6.7 0 3.4 0 0 Z " fill="#295143" transform="translate(327,285)"/>
<path d="M0 0 C1.9453125 -0.29296875 1.9453125 -0.29296875 4.125 -0.1875 C5.40375 -0.125625 6.6825 -0.06375 8 0 C6.25 4.875 6.25 4.875 4 6 C4 4.68 4 3.36 4 2 C2.02 2.33 0.04 2.66 -2 3 C-1.34 2.01 -0.68 1.02 0 0 Z " fill="#C4DCD3" transform="translate(227,251)"/>
<path d="M0 0 C0.66 0.33 1.32 0.66 2 1 C1.67 3.97 1.34 6.94 1 10 C0.01 10 -0.98 10 -2 10 C-2.1953125 3.9453125 -2.1953125 3.9453125 -2 2 C-1.34 1.34 -0.68 0.68 0 0 Z " fill="#D9EBE4" transform="translate(127,200)"/>
<path d="M0 0 C1.8125 0.125 1.8125 0.125 4 1 C5.75 4.0625 5.75 4.0625 7 7 C5.35 6.67 3.7 6.34 2 6 C2 5.34 2 4.68 2 4 C1.34 3.67 0.68 3.34 0 3 C0 2.01 0 1.02 0 0 Z " fill="#093A28" transform="translate(111,345)"/>
<path d="M0 0 C3.465 1.485 3.465 1.485 7 3 C7 3.99 7 4.98 7 6 C5.35 6 3.7 6 2 6 C2 5.34 2 4.68 2 4 C1.01 3.67 0.02 3.34 -1 3 C-0.67 2.01 -0.34 1.02 0 0 Z " fill="#194333" transform="translate(364,287)"/>
<path d="M0 0 C1.98 0 3.96 0 6 0 C6 1.32 6 2.64 6 4 C3.69 4 1.38 4 -1 4 C-0.67 2.68 -0.34 1.36 0 0 Z " fill="#FBFDFC" transform="translate(302,234)"/>
<path d="M0 0 C2.88575819 0.39803561 3.82189513 0.79009069 5.75 3.0625 C6.1625 3.701875 6.575 4.34125 7 5 C5.35 5 3.7 5 2 5 C1.67 5.66 1.34 6.32 1 7 C0.31292445 4.50935112 0 2.62113708 0 0 Z " fill="#154433" transform="translate(79,326)"/>
<path d="M0 0 C0.99 0.33 1.98 0.66 3 1 C2.67 2.32 2.34 3.64 2 5 C2.66 5.33 3.32 5.66 4 6 C2.68 6 1.36 6 0 6 C-1.75 4 -1.75 4 -3 2 C-2.01 1.34 -1.02 0.68 0 0 Z " fill="#053925" transform="translate(77,324)"/>
<path d="M0 0 C1.98 0 3.96 0 6 0 C6.33 0.99 6.66 1.98 7 3 C8.32 2.67 9.64 2.34 11 2 C10.67 2.99 10.34 3.98 10 5 C6.05140217 4.4359146 3.29120954 3.2568294 0 1 C0 0.67 0 0.34 0 0 Z " fill="#1D4A39" transform="translate(112,289)"/>
<path d="M0 0 C2.64 0 5.28 0 8 0 C8 1.98 8 3.96 8 6 C5.36 6 2.72 6 0 6 C0 5.67 0 5.34 0 5 C1.98 5 3.96 5 6 5 C5.67 4.01 5.34 3.02 5 2 C3.35 1.67 1.7 1.34 0 1 C0 0.67 0 0.34 0 0 Z " fill="#C8DAD3" transform="translate(277,244)"/>
<path d="M0 0 C2.64 0 5.28 0 8 0 C8 0.33 8 0.66 8 1 C7.05125 1.20625 6.1025 1.4125 5.125 1.625 C1.70833333 2.70833333 1.70833333 2.70833333 0.625 6.125 C0.41875 7.07375 0.2125 8.0225 0 9 C-1.4606285 6.35261084 -2 5.10551666 -2 2 C-1.34 2 -0.68 2 0 2 C0 1.34 0 0.68 0 0 Z " fill="#1A4A37" transform="translate(221,281)"/>
<path d="M0 0 C1.670625 0.061875 1.670625 0.061875 3.375 0.125 C4.035 1.445 4.695 2.765 5.375 4.125 C4.818125 3.774375 4.26125 3.42375 3.6875 3.0625 C0.73727905 1.86646448 -0.64543802 2.05541365 -3.625 3.125 C-5.44837753 5.0818288 -5.44837753 5.0818288 -6.625 7.125 C-5.84042384 2.15601765 -5.49387562 0.18944399 0 0 Z " fill="#D0EAE1" transform="translate(408.625,281.875)"/>
<path d="M0 0 C0.66 0 1.32 0 2 0 C2.66 3.3 3.32 6.6 4 10 C2.35 9.67 0.7 9.34 -1 9 C-0.67 6.03 -0.34 3.06 0 0 Z " fill="#214D3C" transform="translate(123,203)"/>
<path d="M0 0 C2.96175123 0.61277612 4.38058783 1.25372522 7 3 C6.34 4.32 5.68 5.64 5 7 C3.29115995 5.37660195 1.62553283 3.70680947 0 2 C0 1.34 0 0.68 0 0 Z " fill="#E3F2EE" transform="translate(108,288)"/>
<path d="M0 0 C5.94 1.485 5.94 1.485 12 3 C11.01 3.33 10.02 3.66 9 4 C9 4.66 9 5.32 9 6 C4.69127714 4.56375905 3.45397435 3.45397435 0 0 Z " fill="#CEE6DD" transform="translate(95,255)"/>
<path d="M0 0 C1.65 0 3.3 0 5 0 C5.33 0.99 5.66 1.98 6 3 C3.69 3.33 1.38 3.66 -1 4 C-0.67 2.68 -0.34 1.36 0 0 Z " fill="#083A27" transform="translate(153,243)"/>
<path d="M0 0 C2.71329897 0.86031431 4.40863329 1.97772465 6.5625 3.8125 C3.08378379 4.97207207 2.22030355 4.58706651 -1.125 3.375 C-1.93324219 3.08753906 -2.74148438 2.80007812 -3.57421875 2.50390625 C-4.18910156 2.27574219 -4.80398438 2.04757813 -5.4375 1.8125 C-2.4375 -0.1875 -2.4375 -0.1875 0 0 Z " fill="#CAE1D8" transform="translate(423.4375,220.1875)"/>
<path d="M0 0 C2.475 0.495 2.475 0.495 5 1 C5.33 2.98 5.66 4.96 6 7 C3.95880212 5.38405168 1.95927063 3.7143618 0 2 C0 1.34 0 0.68 0 0 Z " fill="#13402E" transform="translate(81,310)"/>
<path d="M0 0 C0.33 0.99 0.66 1.98 1 3 C0.01 3.495 0.01 3.495 -1 4 C-1.66 3.67 -2.32 3.34 -3 3 C-3 3.66 -3 4.32 -3 5 C-3.99 4.67 -4.98 4.34 -6 4 C-6 3.01 -6 2.02 -6 1 C-3.92446352 0.4465236 -2.15634036 0 0 0 Z " fill="#11402E" transform="translate(170,305)"/>
<path d="M0 0 C0.33 0 0.66 0 1 0 C1.1875 3.375 1.1875 3.375 1 7 C0.01 7.66 -0.98 8.32 -2 9 C-2.125 5.625 -2.125 5.625 -2 2 C-1.34 1.34 -0.68 0.68 0 0 Z " fill="#D4E7E0" transform="translate(115,222)"/>
<path d="M0 0 C0 3 0 3 -1 6 C-0.67 6.66 -0.34 7.32 0 8 C-2.97 7.505 -2.97 7.505 -6 7 C-4.02 4.69 -2.04 2.38 0 0 Z " fill="#224B3C" transform="translate(162,288)"/>
<path d="M0 0 C1.65 0 3.3 0 5 0 C5 0.99 5 1.98 5 3 C4.34 3 3.68 3 3 3 C2.67 3.66 2.34 4.32 2 5 C1.01 5.495 1.01 5.495 0 6 C0 4.02 0 2.04 0 0 Z " fill="#2F5B4A" transform="translate(238,289)"/>
<path d="M0 0 C1.0625 1.875 1.0625 1.875 2 4 C1.67 4.66 1.34 5.32 1 6 C2.32 5.67 3.64 5.34 5 5 C5 5.66 5 6.32 5 7 C2.69 7 0.38 7 -2 7 C-1.34 4.69 -0.68 2.38 0 0 Z " fill="#E2F3F0" transform="translate(408,254)"/>
<path d="M0 0 C0.33 0.99 0.66 1.98 1 3 C-1.97 3 -4.94 3 -8 3 C-6.23110084 -0.53779831 -3.70375662 0 0 0 Z " fill="#2E594B" transform="translate(120,257)"/>
<path d="M0 0 C0.99 0.33 1.98 0.66 3 1 C3 1.99 3 2.98 3 4 C3.99 3.67 4.98 3.34 6 3 C5.67 3.99 5.34 4.98 5 6 C4.34 5.67 3.68 5.34 3 5 C3 6.65 3 8.3 3 10 C2.67 10 2.34 10 2 10 C1.855625 8.906875 1.71125 7.81375 1.5625 6.6875 C1.11711896 3.06877013 1.11711896 3.06877013 0 0 Z " fill="#224F40" transform="translate(388,234)"/>
<path d="M0 0 C2 3.75 2 3.75 2 6 C3.65 6 5.3 6 7 6 C6.01 6.66 5.02 7.32 4 8 C2.0625 7.1875 2.0625 7.1875 0 6 C-1 3 -1 3 0 0 Z " fill="#B0D0C4" transform="translate(222,287)"/>
<path d="M0 0 C5.75 -0.125 5.75 -0.125 8 1 C8 1.66 8 2.32 8 3 C5.125 3.1875 5.125 3.1875 2 3 C1.34 2.01 0.68 1.02 0 0 Z " fill="#133E2D" transform="translate(208,290)"/>
<path d="M0 0 C0.66 0 1.32 0 2 0 C2 0.99 2 1.98 2 3 C1.34 3 0.68 3 0 3 C-0.33 4.98 -0.66 6.96 -1 9 C-1.66 9 -2.32 9 -3 9 C-2.01 6.03 -1.02 3.06 0 0 Z " fill="#D6EBE3" transform="translate(393,282)"/>
<path d="M0 0 C2.97 0.495 2.97 0.495 6 1 C6 2.65 6 4.3 6 6 C3.97945196 4.35830472 1.97956942 2.69088222 0 1 C0 0.67 0 0.34 0 0 Z " fill="#1B4736" transform="translate(104,282)"/>
<path d="M0 0 C2 2 2 2 2.125 4.625 C2.08375 5.40875 2.0425 6.1925 2 7 C1.01 7.33 0.02 7.66 -1 8 C-0.67 5.36 -0.34 2.72 0 0 Z " fill="#1C4636" transform="translate(350,241)"/>
<path d="M0 0 C0.33 1.32 0.66 2.64 1 4 C0.34 4 -0.32 4 -1 4 C-1.33 5.98 -1.66 7.96 -2 10 C-2.33 10 -2.66 10 -3 10 C-3.36923077 4.58461538 -3.36923077 4.58461538 -1.5 1.625 C-1.005 1.08875 -0.51 0.5525 0 0 Z " fill="#375C4F" transform="translate(217,240)"/>
<path d="M0 0 C-3.50776784 1.60355101 -6.14354879 2.22036864 -10 2 C-6.19832777 -0.53444815 -4.31588991 -1.33941411 0 0 Z " fill="#295142" transform="translate(167,346)"/>
<path d="M0 0 C0.99 0.33 1.98 0.66 3 1 C3 2.32 3 3.64 3 5 C1.68 4.67 0.36 4.34 -1 4 C-0.67 2.68 -0.34 1.36 0 0 Z " fill="#D6EFE7" transform="translate(283,286)"/>
<path d="M0 0 C0.99 0.33 1.98 0.66 3 1 C3 2.32 3 3.64 3 5 C1.68 4.67 0.36 4.34 -1 4 C-0.67 2.68 -0.34 1.36 0 0 Z " fill="#D5EEE6" transform="translate(352,286)"/>
<path d="M0 0 C2.31 0.33 4.62 0.66 7 1 C3.5647952 3.29013653 2.014669 3.17842973 -2 3 C-1.34 2.01 -0.68 1.02 0 0 Z " fill="#133E2E" transform="translate(109,256)"/>
<path d="M0 0 C0.99 0.33 1.98 0.66 3 1 C2.67 2.32 2.34 3.64 2 5 C1.01 4.67 0.02 4.34 -1 4 C-1.33 3.01 -1.66 2.02 -2 1 C-1.34 0.67 -0.68 0.34 0 0 Z " fill="#E8F4F0" transform="translate(112,219)"/>
</svg>
